<svg id="svg" xmlns="http://www.w3.org/2000/svg" xmlns:xlink="http://www.w3.org/1999/xlink" width="400" height="400" viewBox="0, 0, 400,400"><g id="svgg"><path id="path0" d="M60.400 180.878 C 55.648 182.070,56.000 180.505,56.000 200.435 L 56.000 217.582 56.900 218.136 C 59.860 219.961,69.448 220.372,76.624 218.983 C 78.175 218.682,80.128 217.021,80.600 215.600 C 80.941 214.570,81.402 214.088,82.340 213.777 C 83.042 213.545,83.920 212.915,84.290 212.377 C 84.660 211.840,85.174 211.220,85.431 211.000 C 87.201 209.488,87.481 192.321,85.782 189.571 C 85.032 188.358,82.929 186.400,82.375 186.400 C 81.540 186.400,80.990 185.735,80.651 184.315 C 80.290 182.800,77.473 181.200,75.165 181.199 C 74.194 181.198,71.780 181.017,69.800 180.797 C 67.820 180.577,65.570 180.336,64.800 180.261 C 64.030 180.187,62.050 180.465,60.400 180.878 M101.880 181.918 L 100.400 183.434 100.400 200.275 L 100.400 217.117 101.874 218.411 L 103.348 219.705 104.074 218.753 C 104.473 218.229,104.980 217.583,105.200 217.317 C 105.713 216.698,105.751 182.800,105.239 182.800 C 105.041 182.800,104.537 182.260,104.119 181.601 L 103.360 180.402 101.880 181.918 M182.246 181.846 L 181.200 183.386 181.200 200.171 L 181.200 216.957 182.251 218.473 C 183.032 219.601,183.519 219.946,184.151 219.819 C 184.618 219.725,186.800 219.436,189.000 219.176 C 191.200 218.917,193.900 218.587,195.000 218.444 C 196.160 218.293,197.756 218.383,198.800 218.659 C 201.129 219.276,203.720 219.320,204.286 218.754 C 204.532 218.508,205.138 218.103,205.633 217.854 C 206.318 217.508,206.657 216.791,207.051 214.854 C 207.336 213.453,207.845 211.886,208.182 211.371 C 208.750 210.505,208.721 210.293,207.798 208.558 C 207.249 207.525,206.799 206.303,206.798 205.840 C 206.794 204.514,206.023 202.081,205.414 201.471 C 203.784 199.841,203.677 191.924,205.275 191.267 C 205.721 191.084,205.688 188.800,205.239 188.800 C 205.041 188.800,204.750 187.675,204.593 186.300 C 204.437 184.925,204.163 183.523,203.986 183.185 C 203.544 182.343,197.379 181.264,191.600 181.017 C 189.070 180.908,186.166 180.704,185.146 180.563 C 183.337 180.313,183.267 180.343,182.246 181.846 M232.000 180.782 C 228.883 181.156,223.200 184.176,223.200 185.458 C 223.200 185.580,222.586 186.697,221.837 187.940 C 220.971 189.374,220.317 191.134,220.046 192.758 C 219.622 195.301,218.766 196.800,217.738 196.800 C 216.654 196.800,217.012 203.386,218.124 203.892 C 219.104 204.339,219.999 206.606,220.001 208.646 C 220.004 211.084,224.249 216.205,228.040 218.345 C 234.040 221.731,251.396 219.945,252.162 215.863 C 252.528 213.909,253.781 212.498,255.645 211.939 C 257.584 211.358,257.827 210.940,258.811 206.489 C 259.796 202.036,259.791 198.364,258.794 193.642 C 257.880 189.308,257.661 188.955,255.535 188.383 C 253.867 187.933,252.404 186.154,252.401 184.570 C 252.396 181.401,242.361 179.538,232.000 180.782 M315.480 181.396 C 312.206 182.637,310.050 184.081,309.617 185.323 C 309.383 185.994,308.674 187.365,308.042 188.371 C 307.410 189.377,306.769 190.897,306.619 191.749 C 306.322 193.432,305.618 194.800,305.050 194.800 C 304.853 194.800,304.266 195.259,303.746 195.821 C 301.695 198.033,302.794 205.600,305.166 205.600 C 305.710 205.600,306.800 207.983,306.800 209.174 C 306.800 209.613,307.520 211.087,308.400 212.449 C 309.280 213.810,310.000 215.076,310.000 215.262 C 310.000 218.514,322.709 220.336,333.858 218.683 C 337.678 218.117,338.606 217.457,338.925 215.084 C 339.164 213.302,340.634 211.600,341.933 211.600 C 343.396 211.600,344.316 210.468,344.610 208.304 C 344.768 207.147,345.037 206.110,345.208 206.000 C 346.065 205.450,345.734 203.366,344.611 202.246 C 343.463 201.099,343.430 201.093,339.827 201.333 C 333.070 201.784,328.683 203.119,331.028 204.011 C 332.486 204.565,335.547 207.728,336.066 209.217 C 336.729 211.118,334.431 214.070,331.852 214.629 C 331.163 214.778,330.488 215.077,330.351 215.292 C 329.977 215.879,320.845 215.912,320.481 215.328 C 320.320 215.068,318.930 214.550,317.394 214.175 C 314.026 213.354,313.889 213.236,312.794 210.200 C 309.574 201.280,309.566 199.225,312.719 190.499 C 313.557 188.179,314.604 186.800,315.527 186.800 C 316.534 186.800,320.581 185.449,320.887 185.011 C 321.260 184.477,330.151 184.656,330.333 185.201 C 330.407 185.421,330.808 185.600,331.225 185.600 C 332.361 185.600,335.282 186.816,336.266 187.699 C 337.334 188.657,338.327 187.508,338.676 184.913 C 339.087 181.844,336.880 181.218,324.800 180.976 C 318.682 180.853,316.672 180.944,315.480 181.396 M372.662 181.393 C 369.560 182.071,369.314 182.394,368.560 186.784 C 367.457 193.204,368.226 195.364,371.298 194.472 C 372.234 194.200,374.440 193.711,376.200 193.384 C 379.668 192.742,380.579 192.072,380.259 190.400 C 380.154 189.850,379.806 187.907,379.486 186.082 C 378.580 180.907,377.688 180.294,372.662 181.393 M22.427 182.362 C 21.972 183.001,21.600 183.987,21.600 184.554 C 21.600 185.121,21.385 186.836,21.123 188.365 C 20.307 193.126,21.689 194.226,28.125 193.934 C 32.231 193.747,33.034 192.974,32.625 189.600 C 31.626 181.371,31.507 181.200,26.781 181.200 C 23.345 181.200,23.233 181.230,22.427 182.362 M273.300 182.892 C 271.705 183.103,270.400 183.414,270.400 183.582 C 270.400 183.751,270.855 185.309,271.410 187.044 C 272.254 189.679,272.457 191.256,272.641 196.600 C 272.862 203.022,272.847 203.190,271.108 213.641 C 270.533 217.100,270.648 217.306,274.078 218.943 L 277.000 220.339 280.400 219.777 C 282.270 219.469,285.246 219.212,287.014 219.208 C 290.129 219.200,290.248 219.165,290.910 218.045 C 291.871 216.417,291.339 216.136,286.626 215.788 C 284.441 215.626,282.461 215.344,282.226 215.161 C 277.343 211.346,277.600 212.363,277.600 196.853 C 277.600 183.668,277.514 182.353,276.657 182.454 C 276.406 182.483,274.895 182.680,273.300 182.892 M72.550 185.918 C 75.306 186.633,78.817 188.366,79.080 189.143 C 79.203 189.504,79.775 190.790,80.352 192.000 C 81.333 194.060,81.400 194.568,81.400 200.000 L 81.400 205.800 79.890 208.850 C 78.266 212.129,75.822 213.893,71.900 214.613 C 71.075 214.765,70.397 215.094,70.394 215.345 C 70.390 215.638,70.284 215.657,70.094 215.396 C 69.932 215.174,68.720 214.563,67.400 214.038 C 66.080 213.513,64.640 212.775,64.200 212.399 C 63.760 212.023,62.838 211.394,62.151 211.002 C 60.652 210.145,60.400 208.589,60.400 200.200 C 60.400 191.465,60.641 190.109,62.359 189.162 C 63.152 188.725,64.430 187.913,65.200 187.356 C 65.970 186.799,67.365 186.139,68.300 185.889 C 69.235 185.639,70.003 185.246,70.006 185.017 C 70.010 184.737,70.109 184.734,70.306 185.007 C 70.468 185.230,71.477 185.641,72.550 185.918 M238.800 185.146 C 238.800 185.337,240.015 185.588,241.500 185.704 C 245.388 186.008,247.228 186.737,248.192 188.357 C 248.945 189.621,250.166 190.939,252.274 192.762 C 255.334 195.410,254.498 206.358,251.078 208.402 C 250.375 208.822,249.349 209.920,248.798 210.841 C 246.463 214.745,239.154 216.036,232.067 213.797 C 228.524 212.678,228.504 212.662,226.752 209.364 C 226.061 208.064,225.359 206.910,225.192 206.800 C 223.599 205.749,223.605 195.294,225.199 193.519 C 225.456 193.233,226.236 191.830,226.933 190.400 L 228.200 187.800 231.200 186.725 C 232.850 186.134,234.695 185.639,235.300 185.625 C 235.905 185.611,236.400 185.420,236.400 185.200 C 236.400 184.980,236.940 184.800,237.600 184.800 C 238.260 184.800,238.800 184.956,238.800 185.146 M198.446 186.626 C 202.949 188.946,200.724 194.138,194.998 194.673 C 193.569 194.807,192.400 195.070,192.400 195.258 C 192.400 196.227,189.747 195.479,188.697 194.213 C 186.117 191.103,186.124 189.414,188.725 186.664 L 189.800 185.529 193.600 185.808 C 195.690 185.961,197.871 186.329,198.446 186.626 M382.150 193.994 C 381.239 194.362,381.064 195.122,380.577 200.800 C 380.063 206.798,378.595 208.220,373.598 207.561 C 369.100 206.967,368.170 206.072,367.201 201.405 C 366.685 198.920,365.854 197.741,364.370 197.391 C 363.319 197.143,361.909 200.618,361.038 205.600 C 360.517 208.581,358.685 212.869,357.751 213.295 C 356.369 213.925,355.522 216.712,356.275 218.150 C 356.592 218.755,356.975 219.184,357.126 219.104 C 357.277 219.024,358.287 218.541,359.370 218.030 C 361.605 216.976,362.070 216.648,363.546 215.084 C 366.426 212.033,374.342 210.566,379.439 212.138 C 384.557 213.717,385.797 214.312,386.349 215.459 C 387.033 216.880,389.595 219.600,390.249 219.600 C 390.516 219.600,391.113 218.988,391.575 218.240 L 392.416 216.880 391.455 213.853 C 390.926 212.189,390.014 210.256,389.428 209.560 C 387.895 207.738,387.042 205.826,386.189 202.300 C 385.777 200.595,385.296 199.200,385.120 199.200 C 384.944 199.200,384.800 198.901,384.800 198.535 C 384.800 197.626,383.508 193.594,383.227 193.625 C 383.102 193.639,382.618 193.805,382.150 193.994 M16.215 197.673 C 15.877 198.813,15.600 199.983,15.600 200.273 C 15.600 200.563,15.434 200.800,15.232 200.800 C 15.030 200.800,14.572 202.105,14.214 203.700 C 13.517 206.810,11.537 211.361,10.654 211.882 C 10.358 212.057,9.735 213.268,9.270 214.573 L 8.425 216.945 9.246 218.275 C 9.730 219.058,10.260 219.494,10.534 219.335 C 11.934 218.525,13.898 216.738,14.381 215.835 C 14.686 215.266,15.096 214.800,15.292 214.800 C 15.489 214.800,17.032 214.125,18.723 213.300 C 22.197 211.604,28.388 210.991,31.778 212.006 C 35.246 213.045,38.799 214.948,39.274 216.022 C 39.530 216.601,40.560 217.646,41.563 218.344 L 43.386 219.613 44.493 218.428 C 45.557 217.290,45.966 216.000,45.263 216.000 C 45.078 216.000,44.708 215.269,44.440 214.376 C 44.173 213.483,43.600 212.450,43.169 212.080 C 41.807 210.914,40.454 207.797,39.191 202.920 C 37.089 194.795,37.051 194.735,35.105 196.538 C 34.324 197.262,33.986 198.151,33.623 200.438 C 32.677 206.405,31.533 207.600,26.767 207.600 C 21.901 207.600,20.622 206.152,19.795 199.708 C 19.266 195.582,17.187 194.400,16.215 197.673 M200.766 206.000 C 202.985 210.174,201.304 215.256,197.378 216.241 C 196.390 216.489,191.177 215.697,190.800 215.242 C 190.690 215.109,190.248 214.805,189.818 214.568 C 185.518 212.191,186.441 204.970,191.200 203.749 C 191.750 203.608,192.488 203.243,192.841 202.938 C 193.193 202.633,194.273 202.140,195.241 201.842 L 197.000 201.300 198.511 202.950 C 199.342 203.858,200.357 205.230,200.766 206.000 M142.922 202.851 C 142.665 203.373,142.243 204.520,141.983 205.400 C 141.724 206.280,141.078 207.757,140.549 208.682 C 139.589 210.361,139.589 210.366,140.406 210.803 C 140.857 211.044,141.745 211.959,142.381 212.837 C 143.395 214.237,143.566 214.336,143.784 213.650 C 143.920 213.220,144.815 212.268,145.771 211.534 C 147.507 210.203,147.509 210.198,146.808 209.200 C 146.421 208.650,145.979 207.795,145.826 207.300 C 145.672 206.805,145.378 206.400,145.173 206.400 C 144.968 206.400,144.795 206.085,144.790 205.700 C 144.762 203.886,143.419 201.838,142.922 202.851 " stroke="none" fill="#d0c69f" fill-rule="evenodd"></path><path id="path1" d="M321.819 174.257 C 320.950 174.563,320.140 174.954,320.019 175.125 C 319.811 175.421,317.106 176.771,311.081 179.588 C 308.558 180.767,306.509 182.725,305.706 184.725 C 305.590 185.013,305.164 185.643,304.759 186.125 C 300.538 191.141,299.800 193.265,299.800 200.400 C 299.800 206.526,300.770 209.730,303.496 212.612 C 304.543 213.719,305.649 215.102,305.954 215.686 C 307.644 218.927,309.597 220.332,315.600 222.627 C 317.250 223.258,318.692 223.900,318.804 224.055 C 318.916 224.210,319.501 224.460,320.104 224.612 C 320.707 224.763,321.200 225.030,321.200 225.204 C 321.200 225.379,321.722 225.704,322.360 225.926 C 323.652 226.376,329.600 225.729,329.600 225.139 C 329.600 224.952,329.813 224.800,330.074 224.800 C 330.335 224.800,330.943 224.430,331.424 223.977 C 331.906 223.525,333.628 222.707,335.250 222.160 C 338.942 220.915,340.897 219.640,342.250 217.597 C 342.831 216.718,343.459 216.000,343.646 216.000 C 345.842 216.000,348.651 209.544,348.869 203.995 C 349.096 198.182,341.358 195.576,331.000 197.978 C 326.361 199.053,324.832 204.528,328.407 207.260 C 329.084 207.777,330.191 208.660,330.868 209.222 L 332.098 210.244 331.017 210.952 C 330.397 211.358,328.424 211.852,326.400 212.107 L 322.864 212.554 319.898 211.087 C 317.384 209.845,316.820 209.375,316.205 208.011 C 315.805 207.125,315.350 206.400,315.194 206.400 C 313.160 206.400,313.188 196.296,315.229 193.859 C 315.441 193.607,316.016 192.770,316.507 192.000 C 319.783 186.864,331.722 186.581,333.011 191.608 C 334.140 196.012,334.694 196.386,340.091 196.395 C 343.465 196.400,343.605 196.363,344.282 195.300 C 344.667 194.695,345.115 194.103,345.279 193.984 C 346.760 192.907,346.732 188.180,345.238 187.214 C 345.056 187.096,344.497 186.190,343.996 185.200 C 341.942 181.144,340.090 179.637,335.200 178.044 C 333.754 177.573,332.033 176.665,331.322 175.999 C 329.461 174.254,324.440 173.334,321.819 174.257 M234.900 174.420 C 234.185 174.642,233.600 174.975,233.600 175.161 C 233.600 175.530,228.424 178.145,226.003 178.999 C 223.619 179.840,221.365 181.432,220.518 182.874 C 220.090 183.604,219.132 185.232,218.390 186.492 C 217.547 187.924,216.571 189.007,215.791 189.377 C 214.313 190.079,213.804 191.071,213.177 194.471 C 212.676 197.190,211.366 200.564,210.547 201.244 C 209.225 202.341,207.710 197.334,208.234 193.600 C 209.481 184.725,207.715 180.643,201.555 178.158 C 200.150 177.591,198.628 176.784,198.174 176.364 C 197.720 175.944,197.060 175.600,196.708 175.600 C 196.355 175.600,196.002 175.405,195.922 175.166 C 195.826 174.879,193.763 174.733,189.847 174.737 L 183.917 174.744 181.818 176.872 C 178.023 180.719,178.000 180.858,178.000 200.144 C 178.000 219.317,177.983 219.208,181.432 222.684 C 183.508 224.777,183.557 224.800,185.965 224.800 C 187.322 224.800,188.400 224.977,188.400 225.200 C 188.400 225.441,190.067 225.600,192.600 225.600 C 195.133 225.600,196.800 225.441,196.800 225.200 C 196.800 224.980,197.115 224.799,197.500 224.798 C 197.885 224.796,198.710 224.529,199.333 224.204 C 199.957 223.879,201.175 223.422,202.041 223.189 C 206.135 222.087,211.815 217.953,212.817 215.347 C 213.197 214.358,216.682 211.880,217.223 212.214 C 217.424 212.338,218.311 213.678,219.195 215.192 C 220.079 216.705,221.440 218.470,222.220 219.112 C 223.482 220.153,231.280 223.600,232.372 223.600 C 232.607 223.600,232.800 223.768,232.800 223.973 C 232.800 224.178,233.205 224.472,233.700 224.627 C 234.195 224.781,234.690 225.024,234.800 225.165 C 235.589 226.180,242.019 226.252,242.800 225.255 C 243.351 224.553,245.117 223.668,250.019 221.641 C 254.076 219.964,259.569 214.629,260.975 211.000 C 264.423 202.107,263.013 190.262,257.833 184.600 C 256.827 183.500,256.003 182.496,256.002 182.368 C 255.998 181.802,252.058 179.387,249.203 178.201 C 246.161 176.937,245.532 176.559,244.052 175.101 C 243.191 174.253,236.942 173.788,234.900 174.420 M62.300 174.723 C 61.695 174.794,61.200 174.998,61.200 175.175 C 61.200 175.353,60.455 175.617,59.545 175.762 C 57.099 176.153,54.972 177.840,53.696 180.400 L 52.600 182.600 52.345 198.200 C 52.205 206.780,51.924 214.520,51.722 215.400 C 50.938 218.801,53.294 222.314,57.000 223.271 C 58.100 223.554,59.090 223.903,59.200 224.044 C 59.310 224.186,60.210 224.436,61.200 224.600 C 62.190 224.764,63.149 225.101,63.330 225.349 C 63.571 225.678,63.716 225.664,63.864 225.300 C 64.000 224.965,65.016 224.800,66.939 224.800 C 69.028 224.800,70.211 224.586,71.275 224.016 C 72.079 223.585,73.923 222.957,75.372 222.621 C 82.656 220.932,87.259 216.680,89.578 209.500 C 90.139 207.762,90.320 207.707,91.757 208.838 C 93.210 209.981,94.301 212.256,94.637 214.842 C 94.792 216.029,95.027 217.090,95.160 217.200 C 95.293 217.310,95.932 218.181,96.580 219.135 C 97.686 220.765,100.659 223.200,101.543 223.200 C 101.763 223.200,102.228 223.485,102.576 223.833 C 103.154 224.411,103.381 224.323,105.162 222.832 C 108.523 220.018,108.468 220.395,108.468 200.141 C 108.468 180.098,108.493 180.272,105.129 177.039 L 103.498 175.473 102.075 176.236 C 100.008 177.345,96.583 180.592,96.003 181.993 C 95.728 182.657,95.345 183.200,95.151 183.200 C 94.958 183.200,94.800 183.711,94.800 184.336 C 94.800 186.380,93.669 189.291,92.343 190.659 C 90.627 192.429,90.244 192.357,89.389 190.100 C 86.838 183.366,82.049 178.970,76.000 177.808 C 74.654 177.549,70.413 175.676,70.000 175.157 C 69.766 174.863,63.904 174.532,62.300 174.723 M373.677 177.058 C 368.814 177.845,367.053 179.341,365.958 183.614 C 365.678 184.706,365.331 185.600,365.188 185.600 C 365.044 185.600,364.719 186.294,364.465 187.142 C 364.210 187.991,363.554 189.346,363.006 190.153 C 362.458 190.961,361.757 192.112,361.448 192.711 C 360.971 193.636,358.346 202.336,357.717 205.074 C 357.607 205.555,356.831 206.583,355.993 207.358 C 353.154 209.985,351.691 216.060,352.971 219.913 C 353.962 222.896,356.691 225.114,358.057 224.045 C 358.576 223.639,360.150 222.698,361.555 221.953 C 362.960 221.209,364.523 220.371,365.028 220.091 C 365.532 219.811,366.331 218.959,366.802 218.196 C 367.273 217.434,368.186 216.499,368.829 216.119 C 369.473 215.739,370.000 215.286,370.000 215.114 C 370.000 214.941,371.710 214.800,373.800 214.800 C 375.890 214.800,377.600 214.960,377.600 215.157 C 377.600 215.353,378.032 215.622,378.560 215.754 C 379.088 215.887,380.861 217.134,382.499 218.527 C 384.138 219.920,386.091 221.480,386.839 221.994 C 387.588 222.508,388.651 223.341,389.202 223.845 L 390.204 224.761 392.114 223.572 C 393.165 222.918,394.228 221.937,394.477 221.392 C 394.725 220.846,395.073 220.400,395.249 220.400 C 396.424 220.400,396.362 215.034,395.175 214.000 C 395.048 213.890,394.267 211.820,393.439 209.400 C 392.611 206.980,391.495 204.422,390.959 203.716 C 390.423 203.010,389.438 200.670,388.769 198.516 C 388.101 196.362,387.177 193.387,386.716 191.904 C 386.208 190.269,385.354 188.619,384.547 187.712 C 383.816 186.890,382.909 185.237,382.532 184.039 C 380.724 178.290,378.227 176.322,373.677 177.058 M240.123 177.240 C 248.542 178.526,254.782 182.345,259.013 188.800 C 261.125 192.021,261.830 201.324,260.431 207.509 C 259.589 211.234,259.569 211.267,256.111 214.678 C 254.730 216.041,253.600 217.321,253.600 217.523 C 253.600 218.271,250.429 220.054,247.361 221.030 C 238.886 223.728,234.223 223.342,225.501 219.219 C 223.063 218.066,222.645 217.685,221.174 215.272 C 216.789 208.077,217.031 208.364,215.961 209.098 C 213.829 210.559,210.316 214.273,209.631 215.789 C 207.459 220.602,202.770 222.080,189.531 222.127 C 182.529 222.151,182.614 222.180,180.732 219.222 L 179.600 217.443 179.600 200.306 C 179.600 181.311,179.551 181.697,182.313 179.073 L 183.499 177.947 189.650 177.959 C 198.666 177.978,205.454 180.420,206.383 183.980 C 207.139 186.877,207.251 190.954,206.655 193.964 C 206.257 195.974,206.189 197.262,206.442 197.964 C 207.002 199.518,210.148 205.601,210.390 205.597 C 211.135 205.584,213.670 200.586,214.253 197.978 C 214.620 196.340,215.040 194.910,215.188 194.800 C 215.626 194.475,221.089 185.379,221.360 184.525 C 221.991 182.539,225.887 180.431,233.600 177.902 C 237.374 176.665,236.765 176.726,240.123 177.240 M272.916 177.165 C 269.682 177.429,269.379 177.656,267.819 181.000 C 267.152 182.431,266.811 184.082,266.622 186.800 C 266.368 190.467,265.725 193.986,265.233 194.400 C 263.656 195.729,263.662 204.707,265.240 206.000 C 265.672 206.354,266.380 210.095,266.765 214.057 C 267.251 219.061,269.494 223.191,271.731 223.202 C 271.989 223.204,272.683 223.457,273.273 223.765 C 273.863 224.073,274.898 224.446,275.573 224.594 C 276.248 224.742,276.800 225.029,276.800 225.232 C 276.800 225.439,279.256 225.600,282.400 225.600 C 285.867 225.600,288.000 225.448,288.000 225.200 C 288.000 224.980,288.613 224.800,289.363 224.800 C 290.766 224.800,294.400 221.471,294.400 220.185 C 294.400 219.895,294.646 219.411,294.947 219.110 C 297.681 216.376,293.216 212.618,286.885 212.324 C 283.494 212.167,283.076 212.058,282.085 211.067 L 281.000 209.983 280.800 196.091 C 280.604 182.454,280.583 182.167,279.655 180.400 C 278.457 178.118,277.238 176.782,276.430 176.865 C 276.084 176.900,274.502 177.035,272.916 177.165 M327.400 177.371 C 328.940 177.684,331.190 178.308,332.400 178.758 C 333.610 179.208,335.330 179.758,336.221 179.982 C 338.657 180.593,341.069 182.839,341.401 184.807 C 341.561 185.751,342.233 187.082,343.036 188.043 C 344.553 189.859,344.582 189.962,343.961 191.325 C 343.284 192.811,337.351 193.258,336.301 191.902 C 333.391 188.146,331.719 187.227,326.979 186.778 C 317.416 185.873,312.158 190.955,312.468 200.800 C 312.758 210.028,317.825 214.557,326.743 213.560 C 333.849 212.765,335.278 210.372,330.748 206.853 C 325.133 202.491,327.755 200.014,338.800 199.245 L 343.400 198.926 344.941 200.163 C 348.711 203.189,348.031 209.763,343.573 213.400 C 342.494 214.280,341.609 215.226,341.606 215.501 C 341.595 216.426,337.841 219.930,336.600 220.174 C 335.940 220.304,333.960 220.858,332.200 221.405 C 326.723 223.108,324.010 223.354,321.130 222.408 C 319.776 221.964,318.356 221.600,317.974 221.600 C 317.016 221.600,310.370 218.823,309.451 218.039 C 309.039 217.688,308.259 216.468,307.718 215.328 C 307.176 214.189,305.948 212.425,304.988 211.409 C 299.771 205.886,299.867 194.346,305.179 188.461 C 306.042 187.504,307.102 185.974,307.534 185.061 C 308.892 182.189,312.776 179.876,318.945 178.265 C 320.119 177.958,321.421 177.509,321.839 177.266 C 322.863 176.672,324.077 176.694,327.400 177.371 M21.696 178.310 C 20.290 179.624,19.127 181.795,18.255 184.734 C 17.637 186.822,16.429 189.114,15.413 190.130 C 14.533 191.009,13.688 192.943,13.013 195.618 C 11.833 200.295,10.717 203.369,9.389 205.600 C 8.020 207.900,5.600 214.308,5.600 215.632 C 5.600 216.054,5.420 216.400,5.200 216.400 C 4.980 216.400,4.800 216.760,4.800 217.200 C 4.800 217.640,4.943 218.000,5.117 218.000 C 5.291 218.000,5.641 218.772,5.893 219.716 C 6.337 221.377,7.328 222.687,9.178 224.062 C 10.036 224.699,10.166 224.657,12.591 222.962 C 13.977 221.993,15.295 221.200,15.519 221.200 C 15.744 221.200,16.979 220.199,18.264 218.975 C 19.549 217.751,21.095 216.452,21.700 216.089 C 22.305 215.725,22.800 215.286,22.800 215.114 C 22.800 214.941,24.600 214.800,26.800 214.800 C 29.000 214.800,30.800 214.941,30.800 215.114 C 30.800 215.286,31.301 215.724,31.914 216.086 C 32.527 216.448,33.665 217.342,34.442 218.072 C 35.219 218.802,37.576 220.592,39.679 222.050 L 43.503 224.699 45.340 223.556 C 50.216 220.521,49.764 211.300,44.463 205.659 C 43.254 204.373,42.194 201.552,40.233 194.400 C 39.901 193.190,38.827 190.861,37.845 189.224 C 36.864 187.588,35.949 185.653,35.812 184.924 C 35.676 184.196,35.428 183.600,35.262 183.600 C 35.096 183.600,34.723 182.943,34.432 182.139 C 34.142 181.336,33.183 179.896,32.301 178.939 L 30.698 177.200 26.791 177.200 C 23.073 177.200,22.827 177.254,21.696 178.310 M68.400 177.978 C 76.965 179.087,84.800 182.636,84.800 185.408 C 84.800 185.687,85.039 186.006,85.330 186.118 C 85.622 186.230,86.338 187.284,86.920 188.461 C 94.067 202.889,87.902 218.319,73.819 221.248 C 59.772 224.170,52.762 221.432,53.612 213.356 C 53.817 211.400,53.989 203.803,53.993 196.474 C 53.998 187.116,54.139 182.888,54.466 182.278 C 56.488 178.498,61.197 177.045,68.400 177.978 M106.828 182.274 C 107.037 182.824,107.193 190.724,107.183 200.326 C 107.165 219.232,107.232 218.710,104.511 220.978 L 103.221 222.053 101.406 220.804 C 97.680 218.241,97.911 219.603,97.911 200.172 L 97.911 183.061 98.991 181.707 C 99.585 180.962,100.815 179.815,101.724 179.156 L 103.376 177.960 104.916 179.628 C 105.763 180.545,106.624 181.736,106.828 182.274 M378.767 180.258 C 379.675 181.289,380.590 182.846,380.823 183.758 C 381.261 185.465,384.278 191.775,385.031 192.557 C 385.268 192.803,386.136 195.253,386.960 198.002 C 387.784 200.751,389.166 204.299,390.032 205.887 C 394.583 214.232,394.934 219.494,391.080 221.557 C 390.095 222.084,384.000 218.340,384.000 217.208 C 384.000 217.053,383.370 216.587,382.600 216.172 C 381.830 215.757,381.200 215.292,381.200 215.138 C 381.200 214.352,376.611 213.200,373.485 213.201 C 369.727 213.203,369.092 213.491,365.600 216.783 C 364.302 218.006,362.088 219.489,360.200 220.401 L 357.000 221.946 355.713 220.633 C 353.560 218.437,353.185 214.476,354.962 212.694 C 356.002 211.651,358.836 206.548,359.228 205.011 C 361.004 198.057,363.580 191.973,365.249 190.795 C 365.526 190.600,366.963 185.730,367.378 183.581 C 367.965 180.541,369.842 179.524,376.866 178.441 C 377.012 178.418,377.868 179.236,378.767 180.258 M28.942 179.135 C 31.415 179.472,32.828 181.267,34.026 185.593 C 34.481 187.240,34.977 188.680,35.127 188.793 C 36.686 189.975,38.494 193.910,40.367 200.200 C 41.866 205.232,43.823 209.441,45.420 211.068 C 45.672 211.326,46.282 212.788,46.774 214.318 L 47.668 217.099 46.874 218.649 C 44.897 222.510,43.304 222.619,38.982 219.190 C 37.892 218.325,36.280 217.134,35.400 216.543 C 34.520 215.952,33.620 215.234,33.400 214.947 C 31.621 212.629,22.097 212.604,20.200 214.913 C 19.703 215.518,16.007 218.528,15.427 218.800 C 15.192 218.910,13.951 219.710,12.668 220.578 C 10.057 222.344,9.659 222.293,8.088 219.986 C 6.359 217.446,7.170 212.598,10.053 208.245 C 11.304 206.356,12.268 203.809,13.851 198.203 C 14.410 196.225,15.008 194.515,15.180 194.403 C 15.352 194.291,15.886 193.480,16.367 192.600 C 16.848 191.720,17.677 190.280,18.210 189.400 C 18.742 188.520,19.384 186.810,19.635 185.600 C 20.888 179.560,22.722 178.287,28.942 179.135 M278.283 181.400 C 279.162 182.957,279.188 183.320,279.223 194.800 C 279.276 212.514,279.655 213.600,285.769 213.600 C 289.466 213.600,291.050 214.088,292.453 215.659 C 293.814 217.184,293.777 216.887,292.839 218.716 C 291.089 222.127,290.874 222.200,282.468 222.200 C 271.322 222.200,268.390 220.562,268.407 214.346 C 268.411 212.945,268.106 209.220,267.729 206.066 C 267.081 200.646,267.081 199.988,267.732 194.066 C 268.111 190.620,268.417 186.745,268.411 185.454 C 268.395 182.026,269.557 180.095,271.762 179.881 C 276.303 179.441,277.308 179.675,278.283 181.400 M68.144 188.029 C 64.274 190.315,64.600 189.243,64.600 199.684 C 64.600 206.727,64.719 208.973,65.100 209.100 C 65.375 209.192,65.600 209.506,65.600 209.798 C 65.600 210.489,67.544 212.114,69.181 212.792 C 70.506 213.341,71.149 213.138,74.615 211.083 C 83.077 206.065,81.452 191.603,71.983 187.668 L 70.089 186.881 68.144 188.029 M235.498 187.235 C 226.408 189.371,223.024 200.205,228.817 208.625 C 232.891 214.545,243.363 214.716,247.740 208.934 C 248.545 207.870,249.833 206.221,250.602 205.269 C 252.705 202.665,252.486 195.439,250.264 194.122 C 249.966 193.945,248.868 192.672,247.826 191.293 C 245.646 188.407,244.569 187.739,241.563 187.402 C 240.373 187.269,238.860 187.098,238.200 187.021 C 237.540 186.945,236.324 187.041,235.498 187.235 M71.959 189.225 C 72.767 189.679,73.759 190.544,74.164 191.147 C 74.570 191.750,75.422 192.543,76.059 192.908 C 80.213 195.292,79.609 203.686,74.953 208.280 C 69.648 213.513,67.773 212.958,66.821 205.871 C 65.230 194.038,67.491 186.714,71.959 189.225 M189.385 189.366 C 188.112 191.309,189.429 192.128,193.489 191.916 C 199.904 191.581,199.941 189.102,193.538 188.589 C 190.107 188.314,190.070 188.321,189.385 189.366 M243.298 189.169 C 244.502 189.636,245.308 190.516,247.281 193.523 C 248.192 194.910,249.288 196.233,249.717 196.463 C 251.332 197.327,250.331 202.879,248.065 205.632 C 247.039 206.878,245.618 208.617,244.906 209.496 C 241.220 214.051,231.539 211.577,228.582 205.325 C 224.024 195.691,233.449 185.344,243.298 189.169 M141.774 195.907 C 141.099 196.728,139.706 198.708,138.677 200.307 C 137.649 201.906,136.355 203.420,135.802 203.672 C 135.249 203.924,133.797 205.491,132.576 207.155 C 129.987 210.682,129.829 210.327,135.124 212.867 C 136.953 213.744,138.561 214.762,138.699 215.131 C 139.114 216.237,141.638 219.753,142.523 220.458 C 143.514 221.247,145.567 219.935,146.683 217.800 C 147.891 215.488,149.723 213.542,151.553 212.627 C 155.626 210.591,155.961 210.363,155.737 209.781 C 155.615 209.461,155.384 209.200,155.225 209.200 C 155.066 209.200,154.341 208.372,153.614 207.359 C 152.886 206.347,151.715 204.941,151.009 204.236 C 150.304 203.531,148.943 201.614,147.984 199.977 C 144.788 194.520,143.569 193.721,141.774 195.907 M144.246 198.100 C 144.612 198.815,145.047 199.490,145.214 199.600 C 145.380 199.710,146.369 201.420,147.413 203.400 C 148.456 205.380,149.912 207.704,150.648 208.564 L 151.987 210.128 149.893 211.498 C 147.778 212.883,146.041 214.643,146.014 215.427 C 146.006 215.662,145.404 216.524,144.676 217.343 C 143.152 219.056,143.028 218.993,141.011 215.488 C 139.898 213.556,137.384 211.501,135.198 210.739 L 134.006 210.324 136.203 208.074 C 137.411 206.836,138.400 205.621,138.400 205.374 C 138.400 205.126,139.117 203.814,139.994 202.458 C 140.871 201.101,141.955 199.273,142.402 198.396 C 143.385 196.470,143.408 196.466,144.246 198.100 M375.954 197.700 C 375.694 198.195,375.357 198.690,375.206 198.800 C 375.055 198.910,374.286 200.016,373.498 201.257 L 372.065 203.514 373.932 204.000 C 374.960 204.267,376.090 204.560,376.444 204.652 C 377.684 204.972,378.130 203.765,377.857 200.824 C 377.475 196.714,376.938 195.832,375.954 197.700 M23.093 202.100 C 22.810 203.964,22.881 204.000,26.824 204.000 L 30.400 204.000 30.400 202.656 C 30.400 201.333,30.367 201.307,28.300 201.059 C 23.904 200.531,23.314 200.649,23.093 202.100 M196.800 205.115 C 196.800 205.329,195.966 205.715,194.946 205.972 C 187.064 207.957,187.156 212.066,195.120 213.687 C 198.178 214.309,201.317 211.260,200.051 208.896 C 199.420 207.716,196.800 204.669,196.800 205.115 M198.479 209.096 C 200.140 211.925,196.860 213.043,192.846 211.017 L 191.093 210.131 192.504 209.260 C 196.024 207.084,197.278 207.050,198.479 209.096 " stroke="none" fill="#e6e4ce" fill-rule="evenodd"></path><path id="path2" d="M233.600 177.902 C 225.887 180.431,221.991 182.539,221.360 184.525 C 221.089 185.379,215.626 194.475,215.188 194.800 C 215.040 194.910,214.620 196.340,214.253 197.978 C 213.670 200.586,211.135 205.584,210.390 205.597 C 210.148 205.601,207.002 199.518,206.442 197.964 C 206.189 197.262,206.257 195.974,206.655 193.964 C 207.251 190.954,207.139 186.877,206.383 183.980 C 205.454 180.420,198.666 177.978,189.650 177.959 L 183.499 177.947 182.313 179.073 C 179.551 181.697,179.600 181.311,179.600 200.306 L 179.600 217.443 180.732 219.222 C 182.614 222.180,182.529 222.151,189.531 222.127 C 202.770 222.080,207.459 220.602,209.631 215.789 C 210.316 214.273,213.829 210.559,215.961 209.098 C 217.031 208.364,216.789 208.077,221.174 215.272 C 224.054 219.998,233.882 223.652,240.800 222.569 C 246.793 221.631,253.600 218.947,253.600 217.523 C 253.600 217.321,254.730 216.041,256.111 214.678 C 259.569 211.267,259.589 211.234,260.431 207.509 C 261.830 201.324,261.125 192.021,259.013 188.800 C 254.782 182.345,248.542 178.526,240.123 177.240 C 236.765 176.726,237.374 176.665,233.600 177.902 M321.839 177.266 C 321.421 177.509,320.119 177.958,318.945 178.265 C 312.776 179.876,308.892 182.189,307.534 185.061 C 307.102 185.974,306.042 187.504,305.179 188.461 C 299.867 194.346,299.771 205.886,304.988 211.409 C 305.948 212.425,307.176 214.189,307.718 215.328 C 308.259 216.468,309.039 217.688,309.451 218.039 C 310.370 218.823,317.016 221.600,317.974 221.600 C 318.356 221.600,319.776 221.964,321.130 222.408 C 324.010 223.354,326.723 223.108,332.200 221.405 C 333.960 220.858,335.940 220.304,336.600 220.174 C 337.841 219.930,341.595 216.426,341.606 215.501 C 341.609 215.226,342.494 214.280,343.573 213.400 C 348.031 209.763,348.711 203.189,344.941 200.163 L 343.400 198.926 338.800 199.245 C 327.755 200.014,325.133 202.491,330.748 206.853 C 335.278 210.372,333.849 212.765,326.743 213.560 C 317.825 214.557,312.758 210.028,312.468 200.800 C 312.158 190.955,317.416 185.873,326.979 186.778 C 331.719 187.227,333.391 188.146,336.301 191.902 C 337.351 193.258,343.284 192.811,343.961 191.325 C 344.582 189.962,344.553 189.859,343.036 188.043 C 342.233 187.082,341.561 185.751,341.401 184.807 C 341.069 182.839,338.657 180.593,336.221 179.982 C 335.330 179.758,333.610 179.208,332.400 178.758 C 328.003 177.124,323.243 176.451,321.839 177.266 M60.000 178.267 C 57.371 178.870,55.604 180.151,54.466 182.278 C 54.139 182.888,53.998 187.116,53.993 196.474 C 53.989 203.803,53.817 211.400,53.612 213.356 C 52.762 221.432,59.772 224.170,73.819 221.248 C 87.902 218.319,94.067 202.889,86.920 188.461 C 86.338 187.284,85.622 186.230,85.330 186.118 C 85.039 186.006,84.800 185.687,84.800 185.408 C 84.800 181.023,68.476 176.322,60.000 178.267 M101.724 179.156 C 100.815 179.815,99.585 180.962,98.991 181.707 L 97.911 183.061 97.911 200.172 C 97.911 219.603,97.680 218.241,101.406 220.804 L 103.221 222.053 104.511 220.978 C 107.232 218.710,107.165 219.232,107.183 200.326 C 107.201 181.915,107.225 182.128,104.916 179.628 L 103.376 177.960 101.724 179.156 M373.400 179.014 C 369.939 179.590,367.841 181.180,367.378 183.581 C 366.963 185.730,365.526 190.600,365.249 190.795 C 363.580 191.973,361.004 198.057,359.228 205.011 C 358.836 206.548,356.002 211.651,354.962 212.694 C 353.185 214.476,353.560 218.437,355.713 220.633 L 357.000 221.946 360.200 220.401 C 362.088 219.489,364.302 218.006,365.600 216.783 C 369.092 213.491,369.727 213.203,373.485 213.201 C 376.611 213.200,381.200 214.352,381.200 215.138 C 381.200 215.292,381.830 215.757,382.600 216.172 C 383.370 216.587,384.000 217.053,384.000 217.208 C 384.000 218.340,390.095 222.084,391.080 221.557 C 394.934 219.494,394.583 214.232,390.032 205.887 C 389.166 204.299,387.784 200.751,386.960 198.002 C 386.136 195.253,385.268 192.803,385.031 192.557 C 384.278 191.775,381.261 185.465,380.823 183.758 C 380.442 182.270,377.517 178.341,376.866 178.441 C 376.720 178.464,375.160 178.722,373.400 179.014 M22.221 180.048 C 20.752 181.794,20.162 183.061,19.635 185.600 C 19.384 186.810,18.742 188.520,18.210 189.400 C 17.677 190.280,16.848 191.720,16.367 192.600 C 15.886 193.480,15.352 194.291,15.180 194.403 C 15.008 194.515,14.410 196.225,13.851 198.203 C 12.268 203.809,11.304 206.356,10.053 208.245 C 7.170 212.598,6.359 217.446,8.088 219.986 C 9.659 222.293,10.057 222.344,12.668 220.578 C 13.951 219.710,15.192 218.910,15.427 218.800 C 16.007 218.528,19.703 215.518,20.200 214.913 C 22.097 212.604,31.621 212.629,33.400 214.947 C 33.620 215.234,34.520 215.952,35.400 216.543 C 36.280 217.134,37.892 218.325,38.982 219.190 C 43.304 222.619,44.897 222.510,46.874 218.649 L 47.668 217.099 46.774 214.318 C 46.282 212.788,45.672 211.326,45.420 211.068 C 43.823 209.441,41.866 205.232,40.367 200.200 C 38.494 193.910,36.686 189.975,35.127 188.793 C 34.977 188.680,34.481 187.240,34.026 185.593 C 32.828 181.267,31.415 179.472,28.942 179.135 C 24.550 178.536,23.357 178.698,22.221 180.048 M271.762 179.881 C 269.557 180.095,268.395 182.026,268.411 185.454 C 268.417 186.745,268.111 190.620,267.732 194.066 C 267.081 199.988,267.081 200.646,267.729 206.066 C 268.106 209.220,268.411 212.945,268.407 214.346 C 268.390 220.562,271.322 222.200,282.468 222.200 C 290.874 222.200,291.089 222.127,292.839 218.716 C 294.400 215.672,291.536 213.600,285.769 213.600 C 279.655 213.600,279.276 212.514,279.223 194.800 C 279.175 179.116,279.197 179.160,271.762 179.881 M69.800 180.797 C 71.780 181.017,74.194 181.198,75.165 181.199 C 77.473 181.200,80.290 182.800,80.651 184.315 C 80.990 185.735,81.540 186.400,82.375 186.400 C 82.929 186.400,85.032 188.358,85.782 189.571 C 87.481 192.321,87.201 209.488,85.431 211.000 C 85.174 211.220,84.660 211.840,84.290 212.377 C 83.920 212.915,83.042 213.545,82.340 213.777 C 81.402 214.088,80.941 214.570,80.600 215.600 C 80.128 217.021,78.175 218.682,76.624 218.983 C 69.448 220.372,59.860 219.961,56.900 218.136 L 56.000 217.582 56.000 200.435 C 56.000 184.688,56.057 183.221,56.700 182.460 C 57.533 181.473,62.734 180.062,64.800 180.261 C 65.570 180.336,67.820 180.577,69.800 180.797 M105.239 182.800 C 105.751 182.800,105.713 216.698,105.200 217.317 C 104.980 217.583,104.473 218.229,104.074 218.753 L 103.348 219.705 101.874 218.411 L 100.400 217.117 100.400 200.275 L 100.400 183.434 101.880 181.918 L 103.360 180.402 104.119 181.601 C 104.537 182.260,105.041 182.800,105.239 182.800 M191.600 181.017 C 197.379 181.264,203.544 182.343,203.986 183.185 C 204.163 183.523,204.437 184.925,204.593 186.300 C 204.750 187.675,205.041 188.800,205.239 188.800 C 205.688 188.800,205.721 191.084,205.275 191.267 C 203.677 191.924,203.784 199.841,205.414 201.471 C 206.023 202.081,206.794 204.514,206.798 205.840 C 206.799 206.303,207.249 207.525,207.798 208.558 C 208.721 210.293,208.750 210.505,208.182 211.371 C 207.845 211.886,207.336 213.453,207.051 214.854 C 206.657 216.791,206.318 217.508,205.633 217.854 C 205.138 218.103,204.532 218.508,204.286 218.754 C 203.720 219.320,201.129 219.276,198.800 218.659 C 197.756 218.383,196.160 218.293,195.000 218.444 C 193.900 218.587,191.200 218.917,189.000 219.176 C 186.800 219.436,184.618 219.725,184.151 219.819 C 183.519 219.946,183.032 219.601,182.251 218.473 L 181.200 216.957 181.200 200.171 L 181.200 183.386 182.246 181.846 C 183.267 180.343,183.337 180.313,185.146 180.563 C 186.166 180.704,189.070 180.908,191.600 181.017 M246.962 181.170 C 250.697 181.986,252.399 183.050,252.401 184.570 C 252.404 186.154,253.867 187.933,255.535 188.383 C 257.661 188.955,257.880 189.308,258.794 193.642 C 259.791 198.364,259.796 202.036,258.811 206.489 C 257.827 210.940,257.584 211.358,255.645 211.939 C 253.781 212.498,252.528 213.909,252.162 215.863 C 251.396 219.945,234.040 221.731,228.040 218.345 C 224.249 216.205,220.004 211.084,220.001 208.646 C 219.999 206.606,219.104 204.339,218.124 203.892 C 217.012 203.386,216.654 196.800,217.738 196.800 C 218.766 196.800,219.622 195.301,220.046 192.758 C 220.317 191.134,220.971 189.374,221.837 187.940 C 222.586 186.697,223.200 185.580,223.200 185.458 C 223.200 184.176,228.883 181.156,232.000 180.782 C 236.755 180.211,243.358 180.382,246.962 181.170 M334.936 181.536 C 338.792 182.204,339.833 184.353,337.802 187.453 C 337.135 188.471,337.128 188.472,336.266 187.699 C 335.282 186.816,332.361 185.600,331.225 185.600 C 330.808 185.600,330.407 185.421,330.333 185.201 C 330.151 184.656,321.260 184.477,320.887 185.011 C 320.581 185.449,316.534 186.800,315.527 186.800 C 314.604 186.800,313.557 188.179,312.719 190.499 C 309.566 199.225,309.574 201.280,312.794 210.200 C 313.889 213.236,314.026 213.354,317.394 214.175 C 318.930 214.550,320.320 215.068,320.481 215.328 C 320.845 215.912,329.977 215.879,330.351 215.292 C 330.488 215.077,331.163 214.778,331.852 214.629 C 334.431 214.070,336.729 211.118,336.066 209.217 C 335.547 207.728,332.486 204.565,331.028 204.011 C 328.683 203.119,333.070 201.784,339.827 201.333 C 343.430 201.093,343.463 201.099,344.611 202.246 C 345.734 203.366,346.065 205.450,345.208 206.000 C 345.037 206.110,344.768 207.147,344.610 208.304 C 344.316 210.468,343.396 211.600,341.933 211.600 C 340.634 211.600,339.164 213.302,338.925 215.084 C 338.606 217.457,337.678 218.117,333.858 218.683 C 322.709 220.336,310.000 218.514,310.000 215.262 C 310.000 215.076,309.280 213.810,308.400 212.449 C 307.520 211.087,306.800 209.613,306.800 209.174 C 306.800 207.983,305.710 205.600,305.166 205.600 C 304.905 205.600,304.266 205.141,303.746 204.579 C 301.762 202.439,302.780 194.800,305.050 194.800 C 305.618 194.800,306.322 193.432,306.619 191.749 C 306.769 190.897,307.410 189.377,308.042 188.371 C 308.674 187.365,309.383 185.994,309.617 185.323 C 310.050 184.081,312.206 182.637,315.480 181.396 C 317.236 180.730,330.846 180.828,334.936 181.536 M377.983 181.782 C 378.639 182.480,379.073 183.720,379.486 186.082 C 379.806 187.907,380.154 189.850,380.259 190.400 C 380.579 192.072,379.668 192.742,376.200 193.384 C 374.440 193.711,372.234 194.200,371.298 194.472 C 368.226 195.364,367.457 193.204,368.560 186.784 C 369.314 182.394,369.560 182.071,372.662 181.393 C 376.164 180.628,376.953 180.685,377.983 181.782 M31.034 182.300 C 31.730 183.354,32.038 184.767,32.625 189.600 C 33.034 192.974,32.231 193.747,28.125 193.934 C 21.689 194.226,20.307 193.126,21.123 188.365 C 21.385 186.836,21.600 185.121,21.600 184.554 C 21.600 181.198,29.120 179.401,31.034 182.300 M277.357 183.033 C 277.491 183.381,277.600 189.600,277.600 196.853 C 277.600 212.363,277.343 211.346,282.226 215.161 C 282.461 215.344,284.441 215.626,286.626 215.788 C 291.339 216.136,291.871 216.417,290.910 218.045 C 290.248 219.165,290.129 219.200,287.014 219.208 C 285.246 219.212,282.270 219.469,280.400 219.777 L 277.000 220.339 274.078 218.943 C 270.648 217.306,270.533 217.100,271.108 213.641 C 272.847 203.190,272.862 203.022,272.641 196.600 C 272.457 191.256,272.254 189.679,271.410 187.044 C 270.855 185.309,270.400 183.751,270.400 183.582 C 270.400 183.335,272.736 182.914,276.657 182.454 C 276.909 182.424,277.224 182.685,277.357 183.033 M70.006 185.017 C 70.003 185.246,69.235 185.639,68.300 185.889 C 67.365 186.139,65.970 186.799,65.200 187.356 C 64.430 187.913,63.152 188.725,62.359 189.162 C 60.641 190.109,60.400 191.465,60.400 200.200 C 60.400 208.589,60.652 210.145,62.151 211.002 C 62.838 211.394,63.760 212.023,64.200 212.399 C 64.640 212.775,66.080 213.513,67.400 214.038 C 68.720 214.563,69.932 215.174,70.094 215.396 C 70.284 215.657,70.390 215.638,70.394 215.345 C 70.397 215.094,71.075 214.765,71.900 214.613 C 75.822 213.893,78.266 212.129,79.890 208.850 L 81.400 205.800 81.400 200.000 C 81.400 194.568,81.333 194.060,80.352 192.000 C 79.775 190.790,79.203 189.504,79.080 189.143 C 78.817 188.366,75.306 186.633,72.550 185.918 C 71.477 185.641,70.468 185.230,70.306 185.007 C 70.109 184.734,70.010 184.737,70.006 185.017 M236.400 185.200 C 236.400 185.420,235.905 185.611,235.300 185.625 C 234.695 185.639,232.850 186.134,231.200 186.725 L 228.200 187.800 226.933 190.400 C 226.236 191.830,225.456 193.233,225.199 193.519 C 223.605 195.294,223.599 205.749,225.192 206.800 C 225.359 206.910,226.061 208.064,226.752 209.364 C 228.504 212.662,228.524 212.678,232.067 213.797 C 239.154 216.036,246.463 214.745,248.798 210.841 C 249.349 209.920,250.375 208.822,251.078 208.402 C 254.498 206.358,255.334 195.410,252.274 192.762 C 250.166 190.939,248.945 189.621,248.192 188.357 C 247.228 186.737,245.388 186.008,241.500 185.704 C 240.015 185.588,238.800 185.337,238.800 185.146 C 238.800 184.956,238.260 184.800,237.600 184.800 C 236.940 184.800,236.400 184.980,236.400 185.200 M188.725 186.664 C 186.124 189.414,186.117 191.103,188.697 194.213 C 189.747 195.479,192.400 196.227,192.400 195.258 C 192.400 195.070,193.569 194.807,194.998 194.673 C 199.796 194.225,201.742 191.906,200.145 188.540 C 199.246 186.646,198.013 186.132,193.600 185.808 L 189.800 185.529 188.725 186.664 M75.953 190.271 C 82.020 195.579,81.277 207.132,74.615 211.083 C 71.149 213.138,70.506 213.341,69.181 212.792 C 67.544 212.114,65.600 210.489,65.600 209.798 C 65.600 209.506,65.375 209.192,65.100 209.100 C 64.719 208.973,64.600 206.727,64.600 199.684 C 64.600 189.243,64.274 190.315,68.144 188.029 L 70.089 186.881 71.983 187.668 C 73.025 188.101,74.811 189.273,75.953 190.271 M241.563 187.402 C 244.569 187.739,245.646 188.407,247.826 191.293 C 248.868 192.672,249.966 193.945,250.264 194.122 C 252.486 195.439,252.705 202.665,250.602 205.269 C 249.833 206.221,248.545 207.870,247.740 208.934 C 244.435 213.301,237.866 214.497,232.523 211.706 C 221.249 205.816,225.898 185.598,238.200 187.021 C 238.860 187.098,240.373 187.269,241.563 187.402 M197.714 189.558 C 199.011 190.815,197.403 191.712,193.489 191.916 C 189.429 192.128,188.112 191.309,189.385 189.366 C 190.233 188.072,196.326 188.213,197.714 189.558 M384.127 195.735 C 384.497 196.909,384.800 198.169,384.800 198.535 C 384.800 198.901,384.944 199.200,385.120 199.200 C 385.296 199.200,385.777 200.595,386.189 202.300 C 387.042 205.826,387.895 207.738,389.428 209.560 C 390.014 210.256,390.926 212.189,391.455 213.853 L 392.416 216.880 391.575 218.240 C 391.113 218.988,390.516 219.600,390.249 219.600 C 389.595 219.600,387.033 216.880,386.349 215.459 C 385.797 214.312,384.557 213.717,379.439 212.138 C 374.342 210.566,366.426 212.033,363.546 215.084 C 362.070 216.648,361.605 216.976,359.370 218.030 C 358.287 218.541,357.277 219.024,357.126 219.104 C 356.975 219.184,356.592 218.755,356.275 218.150 C 355.522 216.712,356.369 213.925,357.751 213.295 C 358.685 212.869,360.517 208.581,361.038 205.600 C 361.909 200.618,363.319 197.143,364.370 197.391 C 365.854 197.741,366.685 198.920,367.201 201.405 C 368.170 206.072,369.100 206.967,373.598 207.561 C 378.595 208.220,380.063 206.798,380.577 200.800 C 381.126 194.400,381.334 193.837,383.227 193.625 C 383.352 193.611,383.757 194.561,384.127 195.735 M18.734 196.608 C 19.170 197.162,19.648 198.557,19.795 199.708 C 20.622 206.152,21.901 207.600,26.767 207.600 C 31.533 207.600,32.677 206.405,33.623 200.438 C 33.986 198.151,34.324 197.262,35.105 196.538 C 37.051 194.735,37.089 194.795,39.191 202.920 C 40.454 207.797,41.807 210.914,43.169 212.080 C 43.600 212.450,44.173 213.483,44.440 214.376 C 44.708 215.269,45.078 216.000,45.263 216.000 C 45.966 216.000,45.557 217.290,44.493 218.428 L 43.386 219.613 41.563 218.344 C 40.560 217.646,39.530 216.601,39.274 216.022 C 38.799 214.948,35.246 213.045,31.778 212.006 C 28.388 210.991,22.197 211.604,18.723 213.300 C 17.032 214.125,15.489 214.800,15.292 214.800 C 15.096 214.800,14.686 215.266,14.381 215.835 C 13.898 216.738,11.934 218.525,10.534 219.335 C 10.260 219.494,9.730 219.058,9.246 218.275 L 8.425 216.945 9.270 214.573 C 9.735 213.268,10.358 212.057,10.654 211.882 C 11.537 211.361,13.517 206.810,14.214 203.700 C 14.572 202.105,15.030 200.800,15.232 200.800 C 15.434 200.800,15.600 200.563,15.600 200.273 C 15.600 196.978,17.385 194.891,18.734 196.608 M142.402 198.396 C 141.955 199.273,140.871 201.101,139.994 202.458 C 139.117 203.814,138.400 205.126,138.400 205.374 C 138.400 205.621,137.411 206.836,136.203 208.074 L 134.006 210.324 135.198 210.739 C 137.384 211.501,139.898 213.556,141.011 215.488 C 143.028 218.993,143.152 219.056,144.676 217.343 C 145.404 216.524,146.006 215.662,146.014 215.427 C 146.041 214.643,147.778 212.883,149.893 211.498 L 151.987 210.128 150.648 208.564 C 149.912 207.704,148.456 205.380,147.413 203.400 C 146.369 201.420,145.380 199.710,145.214 199.600 C 145.047 199.490,144.612 198.815,144.246 198.100 C 143.408 196.466,143.385 196.470,142.402 198.396 M377.358 197.434 C 378.520 200.463,377.941 205.039,376.444 204.652 C 376.090 204.560,374.960 204.267,373.932 204.000 L 372.065 203.514 373.498 201.257 C 374.286 200.016,375.055 198.910,375.206 198.800 C 375.357 198.690,375.694 198.195,375.954 197.700 C 376.510 196.644,377.018 196.548,377.358 197.434 M28.300 201.059 C 30.367 201.307,30.400 201.333,30.400 202.656 L 30.400 204.000 26.824 204.000 C 22.881 204.000,22.810 203.964,23.093 202.100 C 23.314 200.649,23.904 200.531,28.300 201.059 M195.241 201.842 C 194.273 202.140,193.193 202.633,192.841 202.938 C 192.488 203.243,191.750 203.608,191.200 203.749 C 186.441 204.970,185.518 212.191,189.818 214.568 C 190.248 214.805,190.690 215.109,190.800 215.242 C 192.095 216.806,197.928 216.446,199.620 214.697 C 203.062 211.138,202.723 207.549,198.511 202.950 L 197.000 201.300 195.241 201.842 M144.790 205.700 C 144.795 206.085,144.968 206.400,145.173 206.400 C 145.378 206.400,145.672 206.805,145.826 207.300 C 145.979 207.795,146.421 208.650,146.808 209.200 C 147.509 210.198,147.507 210.203,145.771 211.534 C 144.815 212.268,143.920 213.220,143.784 213.650 C 143.566 214.336,143.395 214.237,142.381 212.837 C 141.745 211.959,140.857 211.044,140.406 210.803 C 139.589 210.366,139.589 210.361,140.549 208.682 C 141.078 207.757,141.724 206.280,141.983 205.400 C 142.996 201.968,143.293 201.693,144.083 203.451 C 144.466 204.303,144.784 205.315,144.790 205.700 M200.051 208.896 C 201.317 211.260,198.178 214.309,195.120 213.687 C 187.156 212.066,187.064 207.957,194.946 205.972 C 195.966 205.715,196.800 205.329,196.800 205.115 C 196.800 204.669,199.420 207.716,200.051 208.896 " stroke="none" fill="#dcd4b4" fill-rule="evenodd"></path><path id="path3" d="M0.000 200.200 L 0.000 240.400 200.000 240.400 L 400.000 240.400 400.000 231.800 L 400.000 223.200 398.429 223.200 C 397.564 223.200,396.587 223.470,396.257 223.800 C 395.927 224.130,395.459 224.400,395.216 224.400 C 394.973 224.400,394.674 224.662,394.552 224.982 C 393.615 227.422,389.338 227.535,387.621 225.166 C 386.977 224.276,385.061 222.615,383.364 221.474 C 381.667 220.333,379.901 218.816,379.439 218.102 C 378.355 216.425,377.733 216.245,373.400 216.353 C 370.651 216.422,369.705 216.590,369.400 217.066 C 366.978 220.837,366.673 221.155,364.299 222.410 C 362.924 223.136,361.132 224.465,360.316 225.365 C 358.583 227.274,355.566 227.755,354.727 226.255 C 354.497 225.845,353.985 225.185,353.588 224.788 C 353.191 224.391,352.972 223.962,353.100 223.833 C 353.228 223.705,353.137 223.600,352.898 223.600 C 352.658 223.600,352.278 223.015,352.053 222.300 C 351.012 218.996,351.059 216.442,352.353 206.200 L 352.606 204.200 354.881 203.838 L 357.157 203.477 358.415 198.238 C 359.828 192.353,360.717 190.050,362.376 187.976 C 363.003 187.192,363.829 185.437,364.211 184.076 C 364.593 182.714,365.042 181.600,365.209 181.600 C 365.377 181.600,365.625 181.155,365.762 180.610 C 365.898 180.066,366.819 178.788,367.807 177.772 C 368.795 176.755,369.737 175.714,369.902 175.458 C 370.368 174.731,374.021 173.596,375.887 173.598 C 377.841 173.600,381.996 178.480,382.890 181.820 C 383.172 182.874,383.740 183.756,384.438 184.226 C 386.018 185.287,387.775 189.531,388.816 194.800 C 389.400 197.754,389.963 199.176,391.092 200.553 C 392.512 202.284,393.416 204.281,394.237 207.500 C 394.644 209.095,395.095 210.400,395.239 210.400 C 395.383 210.400,395.836 211.570,396.245 213.000 L 396.990 215.600 398.495 215.600 L 400.000 215.600 400.000 187.800 L 400.000 160.000 200.000 160.000 L 0.000 160.000 0.000 200.200 M244.854 173.216 C 245.815 173.474,246.800 174.206,247.756 175.373 C 248.655 176.469,249.772 177.323,250.702 177.624 C 253.434 178.509,255.375 179.774,257.720 182.200 C 260.838 185.427,261.191 186.026,262.435 190.200 L 263.507 193.800 264.154 191.627 C 264.509 190.432,264.800 188.767,264.800 187.927 C 264.800 187.087,264.980 186.400,265.200 186.400 C 265.420 186.400,265.600 185.699,265.600 184.842 C 265.600 182.751,266.985 178.382,267.989 177.304 C 268.435 176.825,268.800 176.246,268.800 176.017 C 268.800 175.788,268.968 175.600,269.173 175.600 C 269.378 175.600,269.652 175.266,269.781 174.858 C 269.977 174.241,270.597 174.072,273.472 173.851 C 277.225 173.563,277.547 173.696,278.839 176.065 C 279.147 176.632,279.847 177.884,280.392 178.848 C 281.377 180.586,281.387 180.707,281.654 194.000 C 282.023 212.345,281.588 211.041,287.410 211.266 C 292.017 211.444,295.289 212.824,296.360 215.041 C 296.669 215.678,297.174 216.350,297.485 216.533 C 297.963 216.817,297.966 216.997,297.501 217.733 C 297.201 218.210,296.733 219.364,296.462 220.297 C 296.191 221.230,295.518 222.445,294.967 222.997 C 294.415 223.549,294.086 224.000,294.236 224.000 C 294.386 224.000,294.035 224.475,293.455 225.055 C 292.875 225.635,292.400 226.257,292.400 226.438 C 292.400 228.602,272.454 227.705,270.421 225.450 C 266.912 221.556,266.120 219.913,265.721 215.700 C 265.591 214.325,265.330 213.200,265.142 213.200 C 264.954 213.200,264.786 212.525,264.769 211.700 C 264.752 210.875,264.427 209.317,264.047 208.237 L 263.356 206.274 262.849 208.637 C 261.490 214.979,255.991 221.103,250.106 222.827 C 249.088 223.125,248.140 223.738,247.732 224.362 C 246.020 226.981,244.441 227.572,239.000 227.633 C 233.936 227.689,231.530 226.988,229.604 224.894 C 228.313 223.491,227.369 222.963,223.684 221.583 C 221.423 220.736,217.600 216.483,217.600 214.816 C 217.600 213.813,216.684 214.161,215.029 215.792 C 214.023 216.784,213.200 217.754,213.200 217.949 C 213.200 218.452,207.723 222.382,205.809 223.252 C 204.924 223.654,204.335 223.986,204.500 223.991 C 204.665 223.996,204.450 224.350,204.021 224.779 C 201.708 227.092,197.902 227.800,189.548 227.471 C 182.297 227.186,182.223 227.161,180.170 224.310 C 177.141 220.102,177.200 220.576,177.200 200.268 C 177.200 180.935,177.344 179.285,179.198 177.294 C 179.648 176.811,179.968 176.348,179.908 176.266 C 179.849 176.184,180.160 175.627,180.600 175.028 C 182.078 173.016,183.001 172.800,190.131 172.800 C 197.654 172.800,198.747 173.081,200.739 175.525 C 201.550 176.520,202.718 177.359,203.911 177.803 C 208.622 179.558,210.604 185.758,209.302 194.666 C 208.974 196.913,209.428 199.200,210.203 199.200 C 210.950 199.200,211.600 196.443,211.600 193.274 C 211.600 189.169,212.231 188.123,215.331 187.090 C 216.797 186.601,217.176 186.200,218.471 183.767 C 220.168 180.578,221.135 179.752,225.000 178.193 C 226.540 177.572,228.041 176.744,228.335 176.353 C 229.900 174.272,230.596 173.802,233.113 173.120 C 235.964 172.348,241.793 172.396,244.854 173.216 M331.455 173.266 C 332.539 173.729,334.797 175.891,334.799 176.468 C 334.800 176.615,335.745 177.045,336.900 177.422 C 345.068 180.092,350.020 188.899,347.125 195.609 C 346.538 196.970,346.550 197.042,347.501 197.759 C 350.008 199.650,350.438 202.637,349.162 209.304 C 348.001 215.374,347.640 216.105,345.239 217.250 C 344.143 217.773,343.059 218.607,342.830 219.105 C 342.268 220.324,339.181 222.229,336.762 222.848 C 335.448 223.185,334.570 223.691,334.128 224.366 C 332.481 226.880,331.255 227.429,326.515 227.776 C 321.702 228.128,318.052 227.225,316.031 225.184 C 315.146 224.290,313.076 222.982,311.114 222.075 C 307.891 220.586,305.600 218.586,305.600 217.262 C 305.600 217.008,305.417 216.800,305.194 216.800 C 304.970 216.800,304.487 216.170,304.119 215.400 C 303.661 214.438,303.181 214.000,302.588 214.000 C 297.837 214.000,297.294 191.483,301.934 186.878 C 302.753 186.065,303.764 184.865,304.180 184.210 C 304.596 183.556,305.087 182.836,305.272 182.610 C 305.457 182.385,305.992 181.690,306.459 181.067 C 306.978 180.376,308.694 179.300,310.855 178.310 C 312.805 177.417,314.400 176.442,314.400 176.143 C 314.400 175.844,314.589 175.600,314.819 175.600 C 315.050 175.600,315.635 175.151,316.119 174.602 C 317.891 172.594,327.853 171.726,331.455 173.266 M71.413 173.245 C 72.385 173.490,73.629 174.106,74.177 174.614 C 74.726 175.122,75.540 175.654,75.987 175.796 C 76.434 175.938,76.800 176.208,76.800 176.396 C 76.800 176.584,77.475 176.957,78.300 177.224 C 84.493 179.233,86.716 181.151,89.085 186.534 L 90.289 189.268 91.089 188.250 C 92.018 187.069,92.493 185.915,93.412 182.608 C 94.000 180.490,94.450 179.847,97.338 177.005 C 102.336 172.086,104.450 171.940,107.094 176.329 C 109.523 180.358,109.390 179.131,109.530 198.800 C 109.675 219.147,109.604 219.908,107.204 223.444 C 104.492 227.439,102.554 227.928,99.947 225.273 C 99.368 224.683,97.983 223.480,96.869 222.600 C 94.889 221.035,93.648 218.995,92.976 216.200 C 91.904 211.739,90.456 210.699,89.191 213.482 C 86.753 218.849,84.502 220.811,78.385 222.900 C 77.073 223.348,76.000 223.868,76.000 224.057 C 76.000 224.246,75.724 224.400,75.387 224.400 C 75.051 224.400,74.674 224.662,74.552 224.982 C 73.326 228.175,58.546 228.262,54.211 225.100 C 51.987 223.478,50.769 222.023,50.445 220.600 C 50.157 219.338,50.072 219.227,50.040 220.074 C 49.823 225.884,42.736 229.241,40.128 224.770 C 39.667 223.980,38.325 222.930,36.471 221.909 C 34.392 220.764,33.233 219.818,32.475 218.648 C 31.011 216.388,31.073 216.412,26.800 216.412 C 22.525 216.412,22.590 216.387,21.119 218.657 C 20.140 220.168,15.977 223.200,14.880 223.200 C 14.652 223.200,14.070 223.839,13.587 224.620 C 9.518 231.205,1.990 223.319,4.177 214.762 C 4.537 213.353,5.004 212.140,5.216 212.067 C 5.427 211.993,5.600 211.701,5.600 211.418 C 5.600 209.929,7.808 204.429,8.979 202.999 C 10.210 201.498,12.000 196.556,12.000 194.662 C 12.000 193.123,14.477 187.644,15.778 186.304 C 16.563 185.495,17.389 184.058,17.732 182.903 C 18.501 180.316,19.260 178.904,20.749 177.300 C 21.412 176.585,22.280 175.444,22.677 174.764 L 23.400 173.529 26.800 173.786 C 29.837 174.015,30.285 174.154,31.000 175.083 C 31.440 175.655,32.385 176.770,33.101 177.562 C 33.816 178.353,34.504 179.315,34.628 179.700 C 34.752 180.085,35.009 180.400,35.199 180.400 C 35.388 180.400,35.823 181.361,36.164 182.535 C 36.505 183.710,37.321 185.346,37.977 186.171 C 39.183 187.689,41.601 193.374,41.599 194.687 C 41.595 197.042,43.423 201.408,45.069 202.975 C 46.802 204.624,49.127 210.428,49.885 215.000 L 50.151 216.600 50.724 214.200 C 51.142 212.449,51.365 207.636,51.549 196.400 C 51.826 179.383,51.850 179.228,54.650 176.126 C 55.282 175.425,55.980 174.560,56.200 174.204 C 56.970 172.958,67.608 172.287,71.413 173.245 M321.984 189.463 C 321.233 189.779,320.115 190.648,319.500 191.395 C 318.885 192.141,318.037 192.861,317.617 192.995 C 317.188 193.131,316.553 194.020,316.172 195.019 C 315.797 195.998,315.336 196.800,315.146 196.800 C 314.956 196.800,314.800 198.330,314.800 200.200 C 314.800 202.070,314.956 203.600,315.146 203.600 C 315.336 203.600,315.805 204.422,316.189 205.426 C 316.617 206.548,317.230 207.383,317.779 207.592 C 318.269 207.778,319.138 208.487,319.710 209.166 C 321.535 211.335,322.793 211.582,327.800 210.751 L 330.600 210.286 329.000 209.595 C 323.683 207.299,322.837 202.608,327.014 198.579 C 330.842 194.885,332.245 190.295,329.740 189.665 C 326.877 188.945,323.430 188.855,321.984 189.463 M69.553 189.738 C 67.639 191.137,67.489 207.307,69.361 210.337 C 69.938 211.270,70.791 210.750,72.224 208.590 C 73.031 207.374,74.065 206.179,74.521 205.935 C 75.342 205.496,75.882 205.092,77.014 204.071 C 78.824 202.439,77.134 194.400,74.981 194.400 C 74.382 194.400,73.036 192.881,72.243 191.312 C 71.428 189.699,70.416 189.107,69.553 189.738 M235.717 189.831 C 235.012 190.137,234.243 190.745,234.010 191.182 C 233.776 191.618,232.772 192.451,231.779 193.034 C 227.486 195.549,227.491 204.453,231.785 206.970 C 232.751 207.536,233.873 208.421,234.278 208.936 C 236.405 211.640,242.821 211.247,244.025 208.339 C 244.289 207.702,244.706 207.050,244.952 206.891 C 246.915 205.617,248.000 203.230,248.000 200.187 C 248.000 196.983,247.913 196.774,245.308 193.739 C 244.817 193.168,244.202 192.110,243.942 191.390 C 243.488 190.134,243.357 190.068,240.834 189.815 C 239.385 189.670,237.930 189.489,237.600 189.412 C 237.270 189.336,236.423 189.524,235.717 189.831 M146.146 193.977 C 146.556 194.320,147.060 195.050,147.267 195.600 C 148.003 197.565,150.141 200.736,150.991 201.123 C 153.544 202.286,158.340 207.963,158.388 209.880 C 158.412 210.825,155.905 212.664,153.113 213.751 C 150.011 214.957,149.320 215.632,147.541 219.192 C 145.128 224.021,141.484 223.811,139.065 218.703 C 138.051 216.562,136.424 214.800,135.461 214.800 C 134.477 214.800,130.184 212.436,129.085 211.289 L 127.999 210.155 129.371 207.377 C 130.890 204.303,132.492 202.574,135.200 201.085 C 136.566 200.335,137.437 199.387,138.811 197.157 C 141.658 192.535,143.475 191.748,146.146 193.977 M195.040 209.548 L 193.480 210.237 195.169 210.743 C 197.204 211.353,198.260 210.833,197.578 209.558 C 197.097 208.661,197.050 208.661,195.040 209.548 " stroke="none" fill="#f4f4ed" fill-rule="evenodd"></path><path id="path4" d="M233.113 173.120 C 230.596 173.802,229.900 174.272,228.335 176.353 C 228.041 176.744,226.540 177.572,225.000 178.193 C 221.135 179.752,220.168 180.578,218.471 183.767 C 217.176 186.200,216.797 186.601,215.331 187.090 C 212.231 188.123,211.600 189.169,211.600 193.274 C 211.600 196.443,210.950 199.200,210.203 199.200 C 209.428 199.200,208.974 196.913,209.302 194.666 C 210.604 185.758,208.622 179.558,203.911 177.803 C 202.718 177.359,201.550 176.520,200.739 175.525 C 198.747 173.081,197.654 172.800,190.131 172.800 C 183.001 172.800,182.078 173.016,180.600 175.028 C 180.160 175.627,179.849 176.184,179.908 176.266 C 179.968 176.348,179.648 176.811,179.198 177.294 C 177.344 179.285,177.200 180.935,177.200 200.268 C 177.200 220.576,177.141 220.102,180.170 224.310 C 182.223 227.161,182.297 227.186,189.548 227.471 C 197.902 227.800,201.708 227.092,204.021 224.779 C 204.450 224.350,204.665 223.996,204.500 223.991 C 204.335 223.986,204.924 223.654,205.809 223.252 C 207.723 222.382,213.200 218.452,213.200 217.949 C 213.200 217.754,214.023 216.784,215.029 215.792 C 216.684 214.161,217.600 213.813,217.600 214.816 C 217.600 216.483,221.423 220.736,223.684 221.583 C 227.369 222.963,228.313 223.491,229.604 224.894 C 231.530 226.988,233.936 227.689,239.000 227.633 C 244.441 227.572,246.020 226.981,247.732 224.362 C 248.140 223.738,249.088 223.125,250.106 222.827 C 255.991 221.103,261.490 214.979,262.849 208.637 L 263.356 206.274 264.047 208.237 C 264.427 209.317,264.752 210.875,264.769 211.700 C 264.786 212.525,264.954 213.200,265.142 213.200 C 265.330 213.200,265.591 214.325,265.721 215.700 C 266.120 219.913,266.912 221.556,270.421 225.450 C 272.454 227.705,292.400 228.602,292.400 226.438 C 292.400 226.257,292.875 225.635,293.455 225.055 C 294.035 224.475,294.386 224.000,294.236 224.000 C 294.086 224.000,294.415 223.549,294.967 222.997 C 295.518 222.445,296.191 221.230,296.462 220.297 C 296.733 219.364,297.201 218.210,297.501 217.733 C 297.966 216.997,297.963 216.817,297.485 216.533 C 297.174 216.350,296.669 215.678,296.360 215.041 C 295.289 212.824,292.017 211.444,287.410 211.266 C 281.588 211.041,282.023 212.345,281.654 194.000 C 281.387 180.707,281.377 180.586,280.392 178.848 C 279.847 177.884,279.147 176.632,278.839 176.065 C 277.547 173.696,277.225 173.563,273.472 173.851 C 270.597 174.072,269.977 174.241,269.781 174.858 C 269.652 175.266,269.378 175.600,269.173 175.600 C 268.968 175.600,268.800 175.788,268.800 176.017 C 268.800 176.246,268.435 176.825,267.989 177.304 C 266.985 178.382,265.600 182.751,265.600 184.842 C 265.600 185.699,265.420 186.400,265.200 186.400 C 264.980 186.400,264.800 187.087,264.800 187.927 C 264.800 188.767,264.509 190.432,264.154 191.627 L 263.507 193.800 262.435 190.200 C 260.597 184.031,256.314 179.441,250.702 177.624 C 249.772 177.323,248.655 176.469,247.756 175.373 C 245.529 172.655,238.706 171.606,233.113 173.120 M319.400 173.007 C 317.869 173.388,316.681 173.965,316.119 174.602 C 315.635 175.151,315.050 175.600,314.819 175.600 C 314.589 175.600,314.400 175.844,314.400 176.143 C 314.400 176.442,312.805 177.417,310.855 178.310 C 308.694 179.300,306.978 180.376,306.459 181.067 C 305.992 181.690,305.457 182.385,305.272 182.610 C 305.087 182.836,304.596 183.556,304.180 184.210 C 303.764 184.865,302.753 186.065,301.934 186.878 C 297.294 191.483,297.837 214.000,302.588 214.000 C 303.181 214.000,303.661 214.438,304.119 215.400 C 304.487 216.170,304.970 216.800,305.194 216.800 C 305.417 216.800,305.600 217.008,305.600 217.262 C 305.600 218.586,307.891 220.586,311.114 222.075 C 313.076 222.982,315.146 224.290,316.031 225.184 C 318.052 227.225,321.702 228.128,326.515 227.776 C 331.255 227.429,332.481 226.880,334.128 224.366 C 334.570 223.691,335.448 223.185,336.762 222.848 C 339.181 222.229,342.268 220.324,342.830 219.105 C 343.059 218.607,344.143 217.773,345.239 217.250 C 347.640 216.105,348.001 215.374,349.162 209.304 C 350.438 202.637,350.008 199.650,347.501 197.759 C 346.550 197.042,346.538 196.970,347.125 195.609 C 350.020 188.899,345.068 180.092,336.900 177.422 C 335.745 177.045,334.800 176.615,334.799 176.468 C 334.789 173.467,325.733 171.432,319.400 173.007 M58.600 173.225 C 57.484 173.410,56.423 173.843,56.200 174.204 C 55.980 174.560,55.282 175.425,54.650 176.126 C 51.850 179.228,51.826 179.383,51.549 196.400 C 51.365 207.636,51.142 212.449,50.724 214.200 L 50.151 216.600 49.885 215.000 C 49.127 210.428,46.802 204.624,45.069 202.975 C 43.423 201.408,41.595 197.042,41.599 194.687 C 41.601 193.374,39.183 187.689,37.977 186.171 C 37.321 185.346,36.505 183.710,36.164 182.535 C 35.823 181.361,35.388 180.400,35.199 180.400 C 35.009 180.400,34.752 180.085,34.628 179.700 C 34.504 179.315,33.816 178.353,33.101 177.562 C 32.385 176.770,31.440 175.655,31.000 175.083 C 30.285 174.154,29.837 174.015,26.800 173.786 L 23.400 173.529 22.677 174.764 C 22.280 175.444,21.412 176.585,20.749 177.300 C 19.260 178.904,18.501 180.316,17.732 182.903 C 17.389 184.058,16.563 185.495,15.778 186.304 C 14.477 187.644,12.000 193.123,12.000 194.662 C 12.000 196.556,10.210 201.498,8.979 202.999 C 7.808 204.429,5.600 209.929,5.600 211.418 C 5.600 211.701,5.427 211.993,5.216 212.067 C 5.004 212.140,4.537 213.353,4.177 214.762 C 1.990 223.319,9.518 231.205,13.587 224.620 C 14.070 223.839,14.652 223.200,14.880 223.200 C 15.977 223.200,20.140 220.168,21.119 218.657 C 22.590 216.387,22.525 216.412,26.800 216.412 C 31.073 216.412,31.011 216.388,32.475 218.648 C 33.233 219.818,34.392 220.764,36.471 221.909 C 38.325 222.930,39.667 223.980,40.128 224.770 C 42.736 229.241,49.823 225.884,50.040 220.074 C 50.072 219.227,50.157 219.338,50.445 220.600 C 50.769 222.023,51.987 223.478,54.211 225.100 C 58.546 228.262,73.326 228.175,74.552 224.982 C 74.674 224.662,75.051 224.400,75.387 224.400 C 75.724 224.400,76.000 224.246,76.000 224.057 C 76.000 223.868,77.073 223.348,78.385 222.900 C 84.502 220.811,86.753 218.849,89.191 213.482 C 90.456 210.699,91.904 211.739,92.976 216.200 C 93.648 218.995,94.889 221.035,96.869 222.600 C 97.983 223.480,99.368 224.683,99.947 225.273 C 102.554 227.928,104.492 227.439,107.204 223.444 C 109.604 219.908,109.675 219.147,109.530 198.800 C 109.390 179.131,109.523 180.358,107.094 176.329 C 104.450 171.940,102.336 172.086,97.338 177.005 C 94.450 179.847,94.000 180.490,93.412 182.608 C 92.493 185.915,92.018 187.069,91.089 188.250 L 90.289 189.268 89.085 186.534 C 86.716 181.151,84.493 179.233,78.300 177.224 C 77.475 176.957,76.800 176.584,76.800 176.396 C 76.800 176.208,76.434 175.938,75.987 175.796 C 75.540 175.654,74.726 175.122,74.177 174.614 C 72.340 172.911,64.640 172.225,58.600 173.225 M328.122 174.429 C 329.348 174.666,330.508 175.235,331.322 175.999 C 332.033 176.665,333.754 177.573,335.200 178.044 C 340.090 179.637,341.942 181.144,343.996 185.200 C 344.497 186.190,345.056 187.096,345.238 187.214 C 346.732 188.180,346.760 192.907,345.279 193.984 C 345.115 194.103,344.667 194.695,344.282 195.300 C 343.605 196.363,343.465 196.400,340.091 196.395 C 334.694 196.386,334.140 196.012,333.011 191.608 C 331.722 186.581,319.783 186.864,316.507 192.000 C 316.016 192.770,315.441 193.607,315.229 193.859 C 313.188 196.296,313.160 206.400,315.194 206.400 C 315.350 206.400,315.805 207.125,316.205 208.011 C 316.820 209.375,317.384 209.845,319.898 211.087 L 322.864 212.554 326.400 212.107 C 328.424 211.852,330.397 211.358,331.017 210.952 L 332.098 210.244 330.868 209.222 C 330.191 208.660,329.084 207.777,328.407 207.260 C 324.832 204.528,326.361 199.053,331.000 197.978 C 341.358 195.576,349.096 198.182,348.869 203.995 C 348.651 209.544,345.842 216.000,343.646 216.000 C 343.459 216.000,342.831 216.718,342.250 217.597 C 340.897 219.640,338.942 220.915,335.250 222.160 C 333.628 222.707,331.906 223.525,331.424 223.977 C 330.943 224.430,330.335 224.800,330.074 224.800 C 329.813 224.800,329.600 224.952,329.600 225.139 C 329.600 225.729,323.652 226.376,322.360 225.926 C 321.722 225.704,321.200 225.379,321.200 225.204 C 321.200 225.030,320.707 224.763,320.104 224.612 C 319.501 224.460,318.916 224.210,318.804 224.055 C 318.692 223.900,317.250 223.258,315.600 222.627 C 309.597 220.332,307.644 218.927,305.954 215.686 C 305.649 215.102,304.543 213.719,303.496 212.612 C 300.770 209.730,299.800 206.526,299.800 200.400 C 299.800 193.265,300.538 191.141,304.759 186.125 C 305.164 185.643,305.590 185.013,305.706 184.725 C 306.509 182.725,308.558 180.767,311.081 179.588 C 317.106 176.771,319.811 175.421,320.019 175.125 C 320.140 174.954,320.950 174.563,321.819 174.257 C 323.399 173.701,324.511 173.731,328.122 174.429 M372.000 174.329 C 371.010 174.698,370.066 175.207,369.902 175.461 C 369.737 175.716,368.795 176.755,367.807 177.772 C 366.819 178.788,365.898 180.066,365.762 180.610 C 365.625 181.155,365.377 181.600,365.209 181.600 C 365.042 181.600,364.593 182.714,364.211 184.076 C 363.829 185.437,363.003 187.192,362.376 187.976 C 360.717 190.050,359.828 192.353,358.415 198.238 L 357.157 203.477 354.881 203.838 L 352.606 204.200 352.353 206.200 C 351.059 216.442,351.012 218.996,352.053 222.300 C 352.278 223.015,352.658 223.600,352.898 223.600 C 353.137 223.600,353.228 223.705,353.100 223.833 C 352.972 223.962,353.191 224.391,353.588 224.788 C 353.985 225.185,354.497 225.845,354.727 226.255 C 355.566 227.755,358.583 227.274,360.316 225.365 C 361.132 224.465,362.924 223.136,364.299 222.410 C 366.673 221.155,366.978 220.837,369.400 217.066 C 369.705 216.590,370.651 216.422,373.400 216.353 C 377.733 216.245,378.355 216.425,379.439 218.102 C 379.901 218.816,381.667 220.333,383.364 221.474 C 385.061 222.615,386.977 224.276,387.621 225.166 C 389.338 227.535,393.615 227.422,394.552 224.982 C 394.674 224.662,394.973 224.400,395.216 224.400 C 395.459 224.400,395.927 224.130,396.257 223.800 C 396.587 223.470,397.564 223.200,398.429 223.200 L 400.000 223.200 400.000 219.400 L 400.000 215.600 398.495 215.600 L 396.990 215.600 396.245 213.000 C 395.836 211.570,395.383 210.400,395.239 210.400 C 395.095 210.400,394.644 209.095,394.237 207.500 C 393.416 204.281,392.512 202.284,391.092 200.553 C 389.963 199.176,389.400 197.754,388.816 194.800 C 387.775 189.531,386.018 185.287,384.438 184.226 C 383.740 183.756,383.172 182.874,382.890 181.820 C 382.645 180.904,381.349 178.680,380.010 176.878 L 377.575 173.600 375.687 173.629 C 374.649 173.646,372.990 173.961,372.000 174.329 M244.052 175.101 C 245.532 176.559,246.161 176.937,249.203 178.201 C 252.058 179.387,255.998 181.802,256.002 182.368 C 256.003 182.496,256.827 183.500,257.833 184.600 C 263.013 190.262,264.423 202.107,260.975 211.000 C 259.569 214.629,254.076 219.964,250.019 221.641 C 245.117 223.668,243.351 224.553,242.800 225.255 C 242.019 226.252,235.589 226.180,234.800 225.165 C 234.690 225.024,234.195 224.781,233.700 224.627 C 233.205 224.472,232.800 224.178,232.800 223.973 C 232.800 223.768,232.607 223.600,232.372 223.600 C 231.280 223.600,223.482 220.153,222.220 219.112 C 221.440 218.470,220.079 216.705,219.195 215.192 C 218.311 213.678,217.424 212.338,217.223 212.214 C 216.682 211.880,213.197 214.358,212.817 215.347 C 211.815 217.953,206.135 222.087,202.041 223.189 C 201.175 223.422,199.957 223.879,199.333 224.204 C 198.710 224.529,197.885 224.796,197.500 224.798 C 197.115 224.799,196.800 224.980,196.800 225.200 C 196.800 225.441,195.133 225.600,192.600 225.600 C 190.067 225.600,188.400 225.441,188.400 225.200 C 188.400 224.977,187.322 224.800,185.965 224.800 C 183.557 224.800,183.508 224.777,181.432 222.684 C 177.983 219.208,178.000 219.317,178.000 200.144 C 178.000 180.858,178.023 180.719,181.818 176.872 L 183.917 174.744 189.847 174.737 C 193.763 174.733,195.826 174.879,195.922 175.166 C 196.002 175.405,196.355 175.600,196.708 175.600 C 197.060 175.600,197.720 175.944,198.174 176.364 C 198.628 176.784,200.150 177.591,201.555 178.158 C 207.715 180.643,209.481 184.725,208.234 193.600 C 207.710 197.334,209.225 202.341,210.547 201.244 C 211.366 200.564,212.676 197.190,213.177 194.471 C 213.804 191.071,214.313 190.079,215.791 189.377 C 216.571 189.007,217.547 187.924,218.390 186.492 C 219.132 185.232,220.090 183.604,220.518 182.874 C 221.365 181.432,223.619 179.840,226.003 178.999 C 228.424 178.145,233.600 175.530,233.600 175.161 C 233.600 173.857,242.736 173.805,244.052 175.101 M70.000 175.157 C 70.413 175.676,74.654 177.549,76.000 177.808 C 82.049 178.970,86.838 183.366,89.389 190.100 C 90.244 192.357,90.627 192.429,92.343 190.659 C 93.669 189.291,94.800 186.380,94.800 184.336 C 94.800 183.711,94.958 183.200,95.151 183.200 C 95.345 183.200,95.728 182.657,96.003 181.993 C 96.583 180.592,100.008 177.345,102.075 176.236 L 103.498 175.473 105.129 177.039 C 108.493 180.272,108.468 180.098,108.468 200.141 C 108.468 220.395,108.523 220.018,105.162 222.832 C 103.381 224.323,103.154 224.411,102.576 223.833 C 102.228 223.485,101.763 223.200,101.543 223.200 C 100.659 223.200,97.686 220.765,96.580 219.135 C 95.932 218.181,95.293 217.310,95.160 217.200 C 95.027 217.090,94.792 216.029,94.637 214.842 C 94.301 212.256,93.210 209.981,91.757 208.838 C 90.320 207.707,90.139 207.762,89.578 209.500 C 87.259 216.680,82.656 220.932,75.372 222.621 C 73.923 222.957,72.079 223.585,71.275 224.016 C 70.211 224.586,69.028 224.800,66.939 224.800 C 65.016 224.800,64.000 224.965,63.864 225.300 C 63.716 225.664,63.571 225.678,63.330 225.349 C 63.149 225.101,62.190 224.764,61.200 224.600 C 60.210 224.436,59.310 224.186,59.200 224.044 C 59.090 223.903,58.100 223.554,57.000 223.271 C 53.294 222.314,50.938 218.801,51.722 215.400 C 51.924 214.520,52.205 206.780,52.345 198.200 L 52.600 182.600 53.696 180.400 C 54.972 177.840,57.099 176.153,59.545 175.762 C 60.455 175.617,61.200 175.353,61.200 175.175 C 61.200 174.541,69.495 174.524,70.000 175.157 M380.623 180.064 C 381.296 181.053,382.155 182.841,382.532 184.039 C 382.909 185.237,383.816 186.890,384.547 187.712 C 385.354 188.619,386.208 190.269,386.716 191.904 C 387.177 193.387,388.101 196.362,388.769 198.516 C 389.438 200.670,390.423 203.010,390.959 203.716 C 391.495 204.422,392.611 206.980,393.439 209.400 C 394.267 211.820,395.048 213.890,395.175 214.000 C 396.362 215.034,396.424 220.400,395.249 220.400 C 395.073 220.400,394.725 220.846,394.477 221.392 C 394.228 221.937,393.165 222.918,392.114 223.572 L 390.204 224.761 389.202 223.845 C 388.651 223.341,387.588 222.508,386.839 221.994 C 386.091 221.480,384.138 219.920,382.499 218.527 C 380.861 217.134,379.088 215.887,378.560 215.754 C 378.032 215.622,377.600 215.353,377.600 215.157 C 377.600 214.960,375.890 214.800,373.800 214.800 C 371.710 214.800,370.000 214.941,370.000 215.114 C 370.000 215.286,369.473 215.739,368.829 216.119 C 368.186 216.499,367.273 217.434,366.802 218.196 C 366.331 218.959,365.532 219.811,365.028 220.091 C 364.523 220.371,362.960 221.209,361.555 221.953 C 360.150 222.698,358.576 223.639,358.057 224.045 C 356.691 225.114,353.962 222.896,352.971 219.913 C 351.691 216.060,353.154 209.985,355.993 207.358 C 356.831 206.583,357.607 205.555,357.717 205.074 C 358.346 202.336,360.971 193.636,361.448 192.711 C 361.757 192.112,362.458 190.961,363.006 190.153 C 363.554 189.346,364.210 187.991,364.465 187.142 C 364.719 186.294,365.044 185.600,365.188 185.600 C 365.331 185.600,365.678 184.706,365.958 183.614 C 367.053 179.341,368.814 177.845,373.677 177.058 C 377.558 176.430,378.395 176.793,380.623 180.064 M277.885 177.700 C 280.527 180.583,280.582 180.929,280.800 196.091 L 281.000 209.983 282.085 211.067 C 283.076 212.058,283.494 212.167,286.885 212.324 C 293.216 212.618,297.681 216.376,294.947 219.110 C 294.646 219.411,294.400 219.895,294.400 220.185 C 294.400 221.471,290.766 224.800,289.363 224.800 C 288.613 224.800,288.000 224.980,288.000 225.200 C 288.000 225.448,285.867 225.600,282.400 225.600 C 279.256 225.600,276.800 225.439,276.800 225.232 C 276.800 225.029,276.248 224.742,275.573 224.594 C 274.898 224.446,273.863 224.073,273.273 223.765 C 272.683 223.457,271.989 223.204,271.731 223.202 C 269.494 223.191,267.251 219.061,266.765 214.057 C 266.380 210.095,265.672 206.354,265.240 206.000 C 263.662 204.707,263.656 195.729,265.233 194.400 C 265.725 193.986,266.368 190.467,266.622 186.800 C 266.811 184.082,267.152 182.431,267.819 181.000 C 269.379 177.656,269.682 177.429,272.916 177.165 C 274.502 177.035,276.084 176.900,276.430 176.865 C 276.777 176.829,277.432 177.205,277.885 177.700 M32.301 178.939 C 33.183 179.896,34.142 181.336,34.432 182.139 C 34.723 182.943,35.096 183.600,35.262 183.600 C 35.428 183.600,35.676 184.196,35.812 184.924 C 35.949 185.653,36.864 187.588,37.845 189.224 C 38.827 190.861,39.901 193.190,40.233 194.400 C 42.194 201.552,43.254 204.373,44.463 205.659 C 49.764 211.300,50.216 220.521,45.340 223.556 L 43.503 224.699 39.679 222.050 C 37.576 220.592,35.219 218.802,34.442 218.072 C 33.665 217.342,32.527 216.448,31.914 216.086 C 31.301 215.724,30.800 215.286,30.800 215.114 C 30.800 214.941,29.000 214.800,26.800 214.800 C 24.600 214.800,22.800 214.941,22.800 215.114 C 22.800 215.286,22.305 215.725,21.700 216.089 C 21.095 216.452,19.549 217.751,18.264 218.975 C 16.979 220.199,15.744 221.200,15.519 221.200 C 15.295 221.200,13.977 221.993,12.591 222.962 C 10.166 224.657,10.036 224.699,9.178 224.062 C 7.328 222.687,6.337 221.377,5.893 219.716 C 5.641 218.772,5.291 218.000,5.117 218.000 C 4.943 218.000,4.800 217.640,4.800 217.200 C 4.800 216.760,4.980 216.400,5.200 216.400 C 5.420 216.400,5.600 216.054,5.600 215.632 C 5.600 214.308,8.020 207.900,9.389 205.600 C 10.717 203.369,11.833 200.295,13.013 195.618 C 13.688 192.943,14.533 191.009,15.413 190.130 C 16.429 189.114,17.637 186.822,18.255 184.734 C 20.091 178.542,21.612 177.200,26.791 177.200 L 30.698 177.200 32.301 178.939 M68.549 189.281 C 66.655 190.626,65.833 198.522,66.821 205.871 C 67.773 212.958,69.648 213.513,74.953 208.280 C 79.609 203.686,80.213 195.292,76.059 192.908 C 75.422 192.543,74.570 191.750,74.164 191.147 C 72.580 188.789,70.305 188.033,68.549 189.281 M234.200 189.333 C 222.237 195.187,227.208 213.189,240.324 211.515 C 243.480 211.112,243.664 211.031,244.906 209.496 C 245.618 208.617,247.039 206.878,248.065 205.632 C 250.331 202.879,251.332 197.327,249.717 196.463 C 249.288 196.233,248.192 194.910,247.281 193.523 C 244.428 189.176,244.049 188.942,239.298 188.586 C 236.548 188.380,235.975 188.464,234.200 189.333 M329.740 189.665 C 332.245 190.295,330.842 194.885,327.014 198.579 C 322.837 202.608,323.683 207.299,329.000 209.595 L 330.600 210.286 327.800 210.751 C 322.793 211.582,321.535 211.335,319.710 209.166 C 319.138 208.487,318.269 207.778,317.779 207.592 C 317.230 207.383,316.617 206.548,316.189 205.426 C 315.805 204.422,315.336 203.600,315.146 203.600 C 314.956 203.600,314.800 202.070,314.800 200.200 C 314.800 198.330,314.956 196.800,315.146 196.800 C 315.336 196.800,315.797 195.998,316.172 195.019 C 316.553 194.020,317.188 193.131,317.617 192.995 C 318.037 192.861,318.885 192.141,319.500 191.395 C 321.505 188.962,324.759 188.412,329.740 189.665 M72.243 191.312 C 73.036 192.881,74.382 194.400,74.981 194.400 C 77.134 194.400,78.824 202.439,77.014 204.071 C 75.882 205.092,75.342 205.496,74.521 205.935 C 74.065 206.179,73.031 207.374,72.224 208.590 C 69.444 212.778,68.043 209.996,68.014 200.233 C 67.985 190.541,69.858 186.592,72.243 191.312 M240.834 189.815 C 243.357 190.068,243.488 190.134,243.942 191.390 C 244.202 192.110,244.817 193.168,245.308 193.739 C 247.913 196.774,248.000 196.983,248.000 200.187 C 248.000 203.230,246.915 205.617,244.952 206.891 C 244.706 207.050,244.289 207.702,244.025 208.339 C 242.821 211.247,236.405 211.640,234.278 208.936 C 233.873 208.421,232.751 207.536,231.785 206.970 C 227.491 204.453,227.486 195.549,231.779 193.034 C 232.772 192.451,233.776 191.618,234.010 191.182 C 234.489 190.286,236.690 189.202,237.600 189.412 C 237.930 189.489,239.385 189.670,240.834 189.815 M141.939 193.330 C 141.215 193.818,139.807 195.540,138.811 197.157 C 137.437 199.387,136.566 200.335,135.200 201.085 C 132.492 202.574,130.890 204.303,129.371 207.377 L 127.999 210.155 129.085 211.289 C 130.184 212.436,134.477 214.800,135.461 214.800 C 136.424 214.800,138.051 216.562,139.065 218.703 C 141.484 223.811,145.128 224.021,147.541 219.192 C 149.320 215.632,150.011 214.957,153.113 213.751 C 155.905 212.664,158.412 210.825,158.388 209.880 C 158.340 207.963,153.544 202.286,150.991 201.123 C 150.141 200.736,148.003 197.565,147.267 195.600 C 146.372 193.214,143.762 192.101,141.939 193.330 M144.940 195.700 C 145.655 196.415,147.025 198.340,147.984 199.977 C 148.943 201.614,150.304 203.531,151.009 204.236 C 151.715 204.941,152.886 206.347,153.614 207.359 C 154.341 208.372,155.066 209.200,155.225 209.200 C 155.384 209.200,155.615 209.461,155.737 209.781 C 155.961 210.363,155.626 210.591,151.553 212.627 C 149.723 213.542,147.891 215.488,146.683 217.800 C 145.567 219.935,143.514 221.247,142.523 220.458 C 141.638 219.753,139.114 216.237,138.699 215.131 C 138.561 214.762,136.953 213.744,135.124 212.867 C 129.829 210.327,129.987 210.682,132.576 207.155 C 133.797 205.491,135.249 203.924,135.802 203.672 C 136.355 203.420,137.649 201.906,138.677 200.307 C 142.628 194.166,143.076 193.836,144.940 195.700 M195.457 207.843 C 194.608 208.143,193.279 208.780,192.504 209.260 L 191.093 210.131 192.846 211.017 C 196.860 213.043,200.140 211.925,198.479 209.096 C 197.472 207.380,197.149 207.246,195.457 207.843 M197.578 209.558 C 198.260 210.833,197.204 211.353,195.169 210.743 L 193.480 210.237 195.040 209.548 C 197.050 208.661,197.097 208.661,197.578 209.558 " stroke="none" fill="#ececdc" fill-rule="evenodd"></path></g></svg>